  0
SECTION
  2
HEADER
  9
$ACADVER
  1
AC1014
  9
$ACADMAINTVER
 70
           0
  9
$DWGCODEPAGE
  3
ANSI_1252
  9
$INSBASE
 10
0.0
 20
0.0
 30
0.0
  9
$EXTMIN
 10
69.806881688484
 20
-58.612840204424
 30
0.0
  9
$EXTMAX
 10
101.220168871694
 20
-30.784366613521
 30
0.0
  9
$LIMMIN
 10
69.806881688484
 20
-58.612840204424
  9
$LIMMAX
 10
101.220168871694
 20
-30.784366613521
  9
$ORTHOMODE
 70
           0
  9
$REGENMODE
 70
           1
  9
$FILLMODE
 70
           1
  9
$QTEXTMODE
 70
           0
  9
$MIRRTEXT
 70
           1
  9
$DRAGMODE
 70
           2
  9
$LTSCALE
 40
1.0
  9
$OSMODE
 70
           0
  9
$ATTMODE
 70
           1
  9
$TEXTSIZE
 40
0.2
  9
$TRACEWID
 40
0.05
  9
$TEXTSTYLE
  7
STANDARD
  9
$CLAYER
  8
CUTFILE
  9
$CELTYPE
  6
CONTINUOUS
  9
$CECOLOR
 62
         256
  9
$CELTSCALE
 40
1.0
  9
$DELOBJ
 70
           1
  9
$DISPSILH
 70
           0
  9
$DIMSCALE
 40
1.0
  9
$DIMASZ
 40
0.18
  9
$DIMEXO
 40
0.0625
  9
$DIMDLI
 40
0.38
  9
$DIMRND
 40
0.0
  9
$DIMDLE
 40
0.0
  9
$DIMEXE
 40
0.18
  9
$DIMTP
 40
0.0
  9
$DIMTM
 40
0.0
  9
$DIMTXT
 40
0.18
  9
$DIMCEN
 40
0.09
  9
$DIMTSZ
 40
0.0
  9
$DIMTOL
 70
           0
  9
$DIMLIM
 70
           0
  9
$DIMTIH
 70
           1
  9
$DIMTOH
 70
           1
  9
$DIMSE1
 70
           0
  9
$DIMSE2
 70
           0
  9
$DIMTAD
 70
           0
  9
$DIMZIN
 70
           0
  9
$DIMBLK
  1

  9
$DIMASO
 70
           1
  9
$DIMSHO
 70
           1
  9
$DIMPOST
  1

  9
$DIMAPOST
  1

  9
$DIMALT
 70
           0
  9
$DIMALTD
 70
           2
  9
$DIMALTF
 40
25.4
  9
$DIMLFAC
 40
1.0
  9
$DIMTOFL
 70
           0
  9
$DIMTVP
 40
0.0
  9
$DIMTIX
 70
           0
  9
$DIMSOXD
 70
           0
  9
$DIMSAH
 70
           0
  9
$DIMBLK1
  1

  9
$DIMBLK2
  1

  9
$DIMSTYLE
  2
STANDARD
  9
$DIMCLRD
 70
           0
  9
$DIMCLRE
 70
           0
  9
$DIMCLRT
 70
           0
  9
$DIMTFAC
 40
1.0
  9
$DIMGAP
 40
0.09
  9
$DIMJUST
 70
           0
  9
$DIMSD1
 70
           0
  9
$DIMSD2
 70
           0
  9
$DIMTOLJ
 70
           1
  9
$DIMTZIN
 70
           0
  9
$DIMALTZ
 70
           0
  9
$DIMALTTZ
 70
           0
  9
$DIMFIT
 70
           3
  9
$DIMUPT
 70
           0
  9
$DIMUNIT
 70
           3
  9
$DIMDEC
 70
           4
  9
$DIMTDEC
 70
           4
  9
$DIMALTU
 70
           2
  9
$DIMALTTD
 70
           2
  9
$DIMTXSTY
  7
STANDARD
  9
$DIMAUNIT
 70
           0
  9
$LUNITS
 70
           3
  9
$LUPREC
 70
           5
  9
$SKETCHINC
 40
0.1
  9
$FILLETRAD
 40
0.0
  9
$AUNITS
 70
           0
  9
$AUPREC
 70
           0
  9
$MENU
  1
acad
  9
$ELEVATION
 40
0.0
  9
$PELEVATION
 40
0.0
  9
$THICKNESS
 40
0.0
  9
$LIMCHECK
 70
           0
  9
$BLIPMODE
 70
           1
  9
$CHAMFERA
 40
0.0
  9
$CHAMFERB
 40
0.0
  9
$CHAMFERC
 40
0.0
  9
$CHAMFERD
 40
0.0
  9
$SKPOLY
 70
           0
  9
$TDCREATE
 40
0.000000000
  9
$TDUPDATE
 40
0.000000000
  9
$TDINDWG
 40
0.0000000000
  9
$TDUSRTIMER
 40
0.0000000000
  9
$USRTIMER
 70
           1
  9
$ANGBASE
 50
0.0
  9
$ANGDIR
 70
           0
  9
$PDMODE
 70
           0
  9
$PDSIZE
 40
0.0
  9
$PLINEWID
 40
0.0
  9
$COORDS
 70
           0
  9
$SPLFRAME
 70
           0
  9
$SPLINETYPE
 70
           6
  9
$SPLINESEGS
 70
           8
  9
$ATTDIA
 70
           0
  9
$ATTREQ
 70
           1
  9
$HANDLING
 70
           1
  9
$HANDSEED
  5
B9
  9
$SURFTAB1
 70
           6
  9
$SURFTAB2
 70
           6
  9
$SURFTYPE
 70
           6
  9
$SURFU
 70
           6
  9
$SURFV
 70
           6
  9
$UCSNAME
  2

  9
$UCSORG
 10
0.0
 20
0.0
 30
0.0
  9
$UCSXDIR
 10
1.0
 20
0.0
 30
0.0
  9
$UCSYDIR
 10
0.0
 20
1.0
 30
0.0
  9
$PUCSNAME
  2

  9
$PUCSORG
 10
0.0
 20
0.0
 30
0.0
  9
$PUCSXDIR
 10
1.0
 20
0.0
 30
0.0
  9
$PUCSYDIR
 10
0.0
 20
1.0
 30
0.0
  9
$USERI1
 70
           0
  9
$USERI2
 70
           0
  9
$USERI3
 70
           0
  9
$USERI4
 70
           0
  9
$USERI5
 70
           0
  9
$USERR1
 40
0.0
  9
$USERR2
 40
0.0
  9
$USERR3
 40
0.0
  9
$USERR4
 40
0.0
  9
$USERR5
 40
0.0
  9
$WORLDVIEW
 70
           1
  9
$SHADEDGE
 70
           3
  9
$SHADEDIF
 70
          70
  9
$TILEMODE
 70
           1
  9
$MAXACTVP
 70
          16
  9
$PINSBASE
 10
0.0
 20
0.0
 30
0.0
  9
$PLIMCHECK
 70
           0
  9
$PEXTMIN
 10
1.000000000000E+20
 20
1.000000000000E+20
 30
1.000000000000E+20
  9
$PEXTMAX
 10
-1.000000000000E+20
 20
-1.000000000000E+20
 30
-1.000000000000E+20
  9
$PLIMMIN
 10
0.0
 20
0.0
  9
$PLIMMAX
 10
12.0
 20
9.0
  9
$UNITMODE
 70
           0
  9
$VISRETAIN
 70
           1
  9
$PLINEGEN
 70
           1
  9
$PSLTSCALE
 70
           0
  9
$TREEDEPTH
 70
        3020
  9
$PICKSTYLE
 70
           1
  9
$CMLSTYLE
  2
STANDARD
  9
$CMLJUST
 70
           0
  9
$CMLSCALE
 40
1.0
  9
$PROXYGRAPHICS
 70
           0
  9
$MEASUREMENT
 70
           0
  0
ENDSEC
  0
SECTION
  2
CLASSES
  0
CLASS
  1
LWPOLYLINE
  2
AcDbPolyline
  3
"AutoCAD"
 90
        0
280
           0
281
           1
  0
CLASS
  1
IMAGE
  2
AcDbRasterImage
  3
ISM
 90
      127
280
           0
281
           1
  0
CLASS
  1
OLE2FRAME
  2
AcDbOle2Frame
  3
""
 90
        0
280
           0
281
           1
  0
CLASS
  1
HATCH
  2
AcDbHatch
  3
"ACAD_SEDONA"
 90
        0
280
           0
281
           1
  0
CLASS
  1
DICTIONARYVAR
  2
AcDbDictionaryVar
  3
"AutoCAD"
 90
        0
280
           0
281
           0
  0
CLASS
  1
RASTERVARIABLES
  2
AcDbRasterVariables
  3
ISM
 90
        0
280
           0
281
           0
  0
CLASS
  1
IMAGEDEF
  2
AcDbRasterImageDef
  3
ISM
 90
        0
280
           0
281
           0
  0
CLASS
  1
IMAGEDEF_REACTOR
  2
AcDbRasterImageDefReactor
  3
ISM
 90
        1
280
           0
281
           0
  0
CLASS
  1
IDBUFFER
  2
AcDbIdBuffer
  3
"Acad"
 90
        0
280
           0
281
           0
  0
CLASS
  1
SPATIAL_FILTER
  2
AcDbSpatialFilter
  3
"Acad"
 90
        0
280
           0
281
           0
  0
CLASS
  1
XRECORD
  2
AcDbXrecord
  3
"<Built In>"
 90
        0
280
           0
281
           0
  0
CLASS
  1
SORTENTSTABLE
  2
AcDbSortentsTable
  3
"AutoCAD"
 90
        0
280
           0
281
           0
  0
CLASS
  1
LAYER_INDEX
  2
AcDbLayerIndex
  3
"Acad"
 90
        0
280
           0
281
           0
  0
CLASS
  1
SPATIAL_INDEX
  2
AcDbSpatialIndex
  3
"Acad"
 90
        0
280
           0
281
           0
  0
CLASS
  1
OBJECT_PTR
  2
CAseDLPNTableRecord
  3
"ASE-LPNTableRecord"
 90
        1
280
           0
281
           0
  0
CLASS
  1
LAYOUT
  2
AcDbLayout
  3
"AutoCAD 2000"
 90
        0
280
           0
281
           0
  0
CLASS
  1
PLOTSETTINGS
  2
AcDbPlotSettings
  3
"AutoCAD 2000"
 90
        0
280
           0
281
           0
  0
CLASS
  1
ACDBDICTIONARYWDFLT
  2
AcDbDictionaryWithDefault
  3
"AutoCAD 2000"
 90
        0
280
           0
281
           0
  0
CLASS
  1
ACDBPLACEHOLDER
  2
AcDbPlaceHolder
  3
"AutoCAD 2000"
 90
        0
280
           0
281
           0
  0
ENDSEC
  0
SECTION
  2
TABLES
  0
TABLE
  2
VPORT
  5
7
100
AcDbSymbolTable
 70
           1
  0
VPORT
  5
15
100
AcDbSymbolTableRecord
100
AcDbViewportTableRecord
  2
*ACTIVE
 70
           0
 10
0.0
 20
0.0
 11
1.0
 21
1.0
 12
6.591288
 22
4.579184
 13
0.0
 23
0.0
 14
1.0
 24
1.0
 15
0.0
 25
0.0
 16
0.0
 26
0.0
 36
1.0
 17
0.0
 27
0.0
 37
0.0
 40
9.158369
 41
0.688564
 42
50.0
 43
0.0
 44
0.0
 50
0.0
 51
0.0
 71
           0
 72
         100
 73
           1
 74
           1
 75
           0
 76
           0
 77
           0
 78
           0
  0
ENDTAB
  0
TABLE
  2
LTYPE
  5
4
100
AcDbSymbolTable
 70
           3
  0
LTYPE
  5
11
100
AcDbSymbolTableRecord
100
AcDbLinetypeTableRecord
  2
BYBLOCK
 70
          64
  3

 72
          65
 73
           0
 40
0.0
  0
LTYPE
  5
12
100
AcDbSymbolTableRecord
100
AcDbLinetypeTableRecord
  2
BYLAYER
 70
          64
  3

 72
          65
 73
           0
 40
0.0
  0
LTYPE
  5
13
100
AcDbSymbolTableRecord
100
AcDbLinetypeTableRecord
  2
CONTINUOUS
 70
          64
  3
Solid line
 72
          65
 73
           0
 40
0.0
  0
ENDTAB
  0
TABLE
  2
LAYER
  5
2
100
AcDbSymbolTable
 70
           2
  0
LAYER
  5
14
100
AcDbSymbolTableRecord
100
AcDbLayerTableRecord
  2
0
 70
           0
 62
           7
  6
CONTINUOUS
  0
LAYER
  5
1D
100
AcDbSymbolTableRecord
100
AcDbLayerTableRecord
  2
CUTFILE
 70
           0
 62
         131
  6
CONTINUOUS
  0
ENDTAB
  0
TABLE
  2
STYLE
  5
3
100
AcDbSymbolTable
 70
           1
  0
STYLE
  5
17
100
AcDbSymbolTableRecord
100
AcDbTextStyleTableRecord
  2
STANDARD
 70
           0
 40
0.0
 41
1.0
 50
0.0
 71
           0
 42
0.0
  3
txt
  4

  0
ENDTAB
  0
TABLE
  2
VIEW
  5
5
100
AcDbSymbolTable
 70
           0
  0
ENDTAB
  0
TABLE
  2
UCS
  5
6
100
AcDbSymbolTable
 70
           0
  0
ENDTAB
  0
TABLE
  2
APPID
  5
8
100
AcDbSymbolTable
 70
           1
  0
APPID
  5
16
100
AcDbSymbolTableRecord
100
AcDbRegAppTableRecord
  2
ACAD
 70
           0
  0
ENDTAB
  0
TABLE
  2
DIMSTYLE
  5
9
100
AcDbSymbolTable
 70
           1
  0
DIMSTYLE
105
18
100
AcDbSymbolTableRecord
100
AcDbDimStyleTableRecord
  2
STANDARD
 70
           0
  3

  4

  5

  6

  7

 40
1.0
 41
0.18
 42
0.0625
 43
0.38
 44
0.18
 45
0.0
 46
0.0
 47
0.0
 48
0.0
 71
           0
 72
           0
 73
           1
 74
           1
 75
           0
 76
           0
 77
           0
 78
           0
140
0.18
141
0.09
142
0.0
143
25.4
144
1.0
145
0.0
146
1.0
147
0.09
170
           0
171
           2
172
           0
173
           0
174
           0
175
           0
176
           0
177
           0
178
           0
270
           2
271
           4
272
           4
273
           2
274
           2
275
           0
280
           0
281
           0
282
           0
283
           1
284
           0
285
           0
286
           0
287
           3
288
           0
340
17
  0
ENDTAB
  0
TABLE
  2
BLOCK_RECORD
  5
1
100
AcDbSymbolTable
 70
           1
  0
BLOCK_RECORD
  5
A
100
AcDbSymbolTableRecord
100
AcDbBlockTableRecord
  2
*MODEL_SPACE
  0
BLOCK_RECORD
  5
B
100
AcDbSymbolTableRecord
100
AcDbBlockTableRecord
  2
*PAPER_SPACE
  0
BLOCK_RECORD
  5
1E
100
AcDbSymbolTableRecord
100
AcDbBlockTableRecord
  2
VW_EMPTYARROW
1001
ACAD
1000
DATACAD SYMBOL: VW_EMPTYARROW
  0
ENDTAB
  0
ENDSEC
  0
SECTION
  2
BLOCKS
  0
BLOCK
  5
D
100
AcDbEntity
  8
0
100
AcDbBlockBegin
  2
*MODEL_SPACE
 70
           0
 10
0.0
 20
0.0
 30
0.0
  3
*MODEL_SPACE
  1

  0
ENDBLK
  5
E
100
AcDbEntity
  8
0
100
AcDbBlockEnd
  0
BLOCK
  5
F
100
AcDbEntity
 67
           1
  8
0
100
AcDbBlockBegin
  2
*PAPER_SPACE
 70
           0
 10
0.0
 20
0.0
 30
0.0
  3
*PAPER_SPACE
  1

  0
ENDBLK
  5
10
100
AcDbEntity
 67
           1
  8
0
100
AcDbBlockEnd
  0
BLOCK
  5
1F
100
AcDbEntity
  8
0
100
AcDbBlockBegin
  2
VW_EMPTYARROW
 70
           0
 10
0.0
 20
0.0
 30
0.0
  3
VW_EMPTYARROW
  1

  0
LINE
  5
20
100
AcDbEntity
  8
0
  6
CONTINUOUS
 62
           7
100
AcDbLine
 10
0.0
 20
0.0
 30
0.0
 11
-1.0
 21
0.0
 31
0.0
  0
LINE
  5
21
100
AcDbEntity
  8
0
  6
CONTINUOUS
 62
           7
100
AcDbLine
 10
0.0
 20
0.0
 30
0.0
 11
-1.0
 21
-0.176326980708
 31
0.0
  0
LINE
  5
22
100
AcDbEntity
  8
0
  6
CONTINUOUS
 62
           7
100
AcDbLine
 10
0.0
 20
0.0
 30
0.0
 11
-1.0
 21
0.176326980708
 31
0.0
  0
LINE
  5
23
100
AcDbEntity
  8
0
  6
CONTINUOUS
 62
           7
100
AcDbLine
 10
-1.0
 20
-0.176326980708
 30
0.0
 11
-1.0
 21
0.176326980708
 31
0.0
  0
ENDBLK
  5
24
100
AcDbEntity
  8
0
100
AcDbBlockEnd
  0
ENDSEC
  0
SECTION
  2
ENTITIES
  0
POINT
  5
25
100
AcDbEntity
  8
CUTFILE
  6
CONTINUOUS
 62
           7
100
AcDbPoint
 10
94.28061118312
 20
-34.546789341687
 30
0.0
  0
POINT
  5
26
100
AcDbEntity
  8
CUTFILE
  6
CONTINUOUS
 62
           7
100
AcDbPoint
 10
86.829675246701
 20
-33.324407051215
 30
0.0
  0
POINT
  5
27
100
AcDbEntity
  8
CUTFILE
  6
CONTINUOUS
 62
           7
100
AcDbPoint
 10
89.216602914371
 20
-33.863793439378
 30
0.0
  0
POINT
  5
28
100
AcDbEntity
  8
CUTFILE
  6
CONTINUOUS
 62
           7
100
AcDbPoint
 10
94.280611183124
 20
-39.293891067161
 30
0.0
  0
POINT
  5
29
100
AcDbEntity
  8
CUTFILE
  6
CONTINUOUS
 62
           7
100
AcDbPoint
 10
86.816330178322
 20
-40.537829676677
 30
0.0
  0
POINT
  5
2A
100
AcDbEntity
  8
CUTFILE
  6
CONTINUOUS
 62
           7
100
AcDbPoint
 10
89.161128051939
 20
-39.895774753692
 30
0.0
  0
LINE
  5
2B
100
AcDbEntity
  8
CUTFILE
  6
CONTINUOUS
 62
           7
100
AcDbLine
 10
69.931881688484
 20
-35.420340204424
 30
0.0
 11
70.556881688486
 21
-35.420340204424
 31
0.0
  0
LINE
  5
2C
100
AcDbEntity
  8
CUTFILE
  6
CONTINUOUS
 62
           7
100
AcDbLine
 10
69.806881688484
 20
-33.911468553941
 30
0.0
 11
69.806881688484
 21
-35.295340204424
 31
0.0
  0
LINE
  5
2D
100
AcDbEntity
  8
CUTFILE
  6
CONTINUOUS
 62
           7
100
AcDbLine
 10
95.306881688484
 20
-33.911468553941
 30
0.0
 11
95.306881688484
 21
-35.295340204424
 31
0.0
  0
LINE
  5
2E
100
AcDbEntity
  8
CUTFILE
  6
CONTINUOUS
 62
           7
100
AcDbLine
 10
77.492888976879
 20
-32.420340204424
 30
0.0
 11
79.593564290702
 21
-32.420340204424
 31
0.0
  0
LINE
  5
2F
100
AcDbEntity
  8
CUTFILE
  6
CONTINUOUS
 62
           7
100
AcDbLine
 10
85.520199086267
 20
-32.420340204424
 30
0.0
 11
87.620874400094
 21
-32.420340204424
 31
0.0
  0
ARC
  5
30
100
AcDbEntity
  8
CUTFILE
  6
CONTINUOUS
 62
           7
100
AcDbCircle
 10
82.556881688484
 20
-31.447802325636
 30
0.0
 40
3.035037878788
100
AcDbArc
 50
200.32335644699
 51
205.272735763665
  0
ARC
  5
31
100
AcDbEntity
  8
CUTFILE
  6
CONTINUOUS
 62
           7
100
AcDbCircle
 10
82.556881688484
 20
-31.447802325636
 30
0.0
 40
3.035037878788
100
AcDbArc
 50
224.237298388229
 51
260.517718687754
  0
ARC
  5
32
100
AcDbEntity
  8
CUTFILE
  6
CONTINUOUS
 62
           7
100
AcDbCircle
 10
82.556881688484
 20
-31.447802325636
 30
0.0
 40
3.035037878788
100
AcDbArc
 50
279.482281312318
 51
315.762701611812
  0
ARC
  5
33
100
AcDbEntity
  8
CUTFILE
  6
CONTINUOUS
 62
           7
100
AcDbCircle
 10
82.556881688484
 20
-31.447802325636
 30
0.0
 40
3.035037878788
100
AcDbArc
 50
334.727264236376
 51
339.67664355301
  0
LINE
  5
34
100
AcDbEntity
  8
CUTFILE
  6
CONTINUOUS
 62
           7
100
AcDbLine
 10
95.191067312512
 20
-33.786806513563
 30
0.0
 11
89.369381688484
 21
-33.357840204424
 31
0.0
  0
ARC
  5
35
100
AcDbEntity
  8
CUTFILE
  6
CONTINUOUS
 62
           7
100
AcDbCircle
 10
89.593779278846
 20
-30.966424541774
 30
0.0
 40
2.401920721033
100
AcDbArc
 50
218.67028567622
 51
264.639368620472
  0
LINE
  5
36
100
AcDbEntity
  8
CUTFILE
  6
CONTINUOUS
 62
           7
100
AcDbLine
 10
69.922696064457
 20
-33.786806513563
 30
0.0
 11
75.744381688471
 21
-33.357840204425
 31
0.0
  0
ARC
  5
37
100
AcDbEntity
  8
CUTFILE
  6
CONTINUOUS
 62
           7
100
AcDbCircle
 10
75.519984098125
 20
-30.966424541777
 30
0.0
 40
2.40192072103
100
AcDbArc
 50
275.360631379055
 51
321.329714323854
  0
ARC
  5
38
100
AcDbEntity
  8
CUTFILE
  6
CONTINUOUS
 62
           7
100
AcDbCircle
 10
78.525631688484
 20
-33.420340204424
 30
0.0
 40
0.203125
100
AcDbArc
 50
0.0
 51
356.063249245121
  0
ARC
  5
39
100
AcDbEntity
  8
CUTFILE
  6
CONTINUOUS
 62
           7
100
AcDbCircle
 10
70.994381688484
 20
-34.670340204424
 30
0.0
 40
0.203125
100
AcDbArc
 50
0.000001291828
 51
354.570620269095
  0
ARC
  5
3A
100
AcDbEntity
  8
CUTFILE
  6
CONTINUOUS
 62
           7
100
AcDbCircle
 10
88.931881688484
 20
-34.107840204424
 30
0.0
 40
0.375
100
AcDbArc
 50
0.0
 51
355.945198580871
  0
ARC
  5
3B
100
AcDbEntity
  8
CUTFILE
  6
CONTINUOUS
 62
           7
100
AcDbCircle
 10
69.931881688484
 20
-35.295340204424
 30
0.0
 40
0.125
100
AcDbArc
 50
180.0
 51
270.000000000004
  0
ARC
  5
3C
100
AcDbEntity
  8
CUTFILE
  6
CONTINUOUS
 62
           7
100
AcDbCircle
 10
69.931881688484
 20
-33.911468553941
 30
0.0
 40
0.125
100
AcDbArc
 50
94.214178522734
 51
180.0
  0
ARC
  5
3D
100
AcDbEntity
  8
CUTFILE
  6
CONTINUOUS
 62
           7
100
AcDbCircle
 10
77.492888976879
 20
-32.545340204421
 30
0.0
 40
0.124999999997
100
AcDbArc
 50
90.0
 51
141.329714325011
  0
ARC
  5
3E
100
AcDbEntity
  8
CUTFILE
  6
CONTINUOUS
 62
           7
100
AcDbCircle
 10
79.593564290702
 20
-32.545340204425
 30
0.0
 40
0.125000000001
100
AcDbArc
 50
20.323356447326
 51
90.0
  0
ARC
  5
3F
100
AcDbEntity
  8
CUTFILE
  6
CONTINUOUS
 62
           7
100
AcDbCircle
 10
85.520199086267
 20
-32.545340204425
 30
0.0
 40
0.125000000001
100
AcDbArc
 50
90.0
 51
159.676643552674
  0
ARC
  5
40
100
AcDbEntity
  8
CUTFILE
  6
CONTINUOUS
 62
           7
100
AcDbCircle
 10
87.620874400094
 20
-32.545340204413
 30
0.0
 40
0.124999999989
100
AcDbArc
 50
38.67028567215
 51
90.0
  0
ARC
  5
41
100
AcDbEntity
  8
CUTFILE
  6
CONTINUOUS
 62
           7
100
AcDbCircle
 10
95.181881688484
 20
-33.911468553941
 30
0.0
 40
0.125
100
AcDbArc
 50
0.0
 51
85.785821477266
  0
ARC
  5
42
100
AcDbEntity
  8
CUTFILE
  6
CONTINUOUS
 62
           7
100
AcDbCircle
 10
95.181881688484
 20
-35.295340204424
 30
0.0
 40
0.125
100
AcDbArc
 50
270.0
 51
360.000000000016
  0
LINE
  5
43
100
AcDbEntity
  8
CUTFILE
  6
CONTINUOUS
 62
           7
100
AcDbLine
 10
69.931881688489
 20
-38.420340204424
 30
0.0
 11
70.556881688489
 21
-38.420340204424
 31
0.0
  0
LINE
  5
44
100
AcDbEntity
  8
CUTFILE
  6
CONTINUOUS
 62
           7
100
AcDbLine
 10
95.306881688489
 20
-40.111462620956
 30
0.0
 11
95.306881688489
 21
-38.545340204424
 31
0.0
  0
LINE
  5
45
100
AcDbEntity
  8
CUTFILE
  6
CONTINUOUS
 62
           7
100
AcDbLine
 10
85.520199086269
 20
-41.420340204424
 30
0.0
 11
86.692577291286
 21
-41.420340204424
 31
0.0
  0
ARC
  5
46
100
AcDbEntity
  8
CUTFILE
  6
CONTINUOUS
 62
           7
100
AcDbCircle
 10
88.931881688489
 20
-39.732840204424
 30
0.0
 40
0.28125
100
AcDbArc
 50
0.000000004234
 51
354.313102219736
  0
ARC
  5
47
100
AcDbEntity
  8
CUTFILE
  6
CONTINUOUS
 62
           7
100
AcDbCircle
 10
69.931881688489
 20
-38.545340204424
 30
0.0
 40
0.125
100
AcDbArc
 50
89.999999999996
 51
180.0
  0
ARC
  5
48
100
AcDbEntity
  8
CUTFILE
  6
CONTINUOUS
 62
           7
100
AcDbCircle
 10
95.181881688489
 20
-38.545340204424
 30
0.0
 40
0.125
100
AcDbArc
 50
359.999999999984
 51
450.0
  0
LINE
  5
49
100
AcDbEntity
  8
CUTFILE
  6
CONTINUOUS
 62
           7
100
AcDbLine
 10
95.185556569939
 20
-40.236408590264
 30
0.0
 11
89.166236941075
 21
-40.413447402877
 31
0.0
  0
ARC
  5
4A
100
AcDbEntity
  8
CUTFILE
  6
CONTINUOUS
 62
           7
100
AcDbCircle
 10
89.148150885181
 20
-43.786007197188
 30
0.0
 40
3.372608289087
100
AcDbArc
 50
89.692742367715
 51
134.593495328201
  0
ARC
  5
4B
100
AcDbEntity
  8
CUTFILE
  6
CONTINUOUS
 62
           7
100
AcDbCircle
 10
86.692577291286
 20
-41.295340204428
 30
0.0
 40
0.124999999996
100
AcDbArc
 50
270.0
 51
314.593495329491
  0
ARC
  5
4C
100
AcDbEntity
  8
CUTFILE
  6
CONTINUOUS
 62
           7
100
AcDbCircle
 10
95.181881688489
 20
-40.111462620956
 30
0.0
 40
0.125
100
AcDbArc
 50
271.684684317897
 51
360.0
  0
LINE
  5
4D
100
AcDbEntity
  8
CUTFILE
  6
CONTINUOUS
 62
           7
100
AcDbLine
 10
69.806881688489
 20
-40.111462620956
 30
0.0
 11
69.806881688489
 21
-38.545340204424
 31
0.0
  0
LINE
  5
4E
100
AcDbEntity
  8
CUTFILE
  6
CONTINUOUS
 62
           7
100
AcDbLine
 10
69.928206807039
 20
-40.236408590264
 30
0.0
 11
75.947526435903
 21
-40.413447402877
 31
0.0
  0
ARC
  5
4F
100
AcDbEntity
  8
CUTFILE
  6
CONTINUOUS
 62
           7
100
AcDbCircle
 10
75.965612491797
 20
-43.786007197188
 30
0.0
 40
3.372608289087
100
AcDbArc
 50
45.406504671798
 51
90.307257632285
  0
ARC
  5
50
100
AcDbEntity
  8
CUTFILE
  6
CONTINUOUS
 62
           7
100
AcDbCircle
 10
69.931881688489
 20
-40.111462620956
 30
0.0
 40
0.125
100
AcDbArc
 50
180.0
 51
268.315315682103
  0
LINE
  5
51
100
AcDbEntity
  8
CUTFILE
  6
CONTINUOUS
 62
           7
100
AcDbLine
 10
79.593564290709
 20
-41.420340204424
 30
0.0
 11
78.421186085693
 21
-41.420340204424
 31
0.0
  0
ARC
  5
52
100
AcDbEntity
  8
CUTFILE
  6
CONTINUOUS
 62
           7
100
AcDbCircle
 10
78.421186085693
 20
-41.295340204428
 30
0.0
 40
0.124999999996
100
AcDbArc
 50
225.406504670509
 51
270.0
  0
ARC
  5
53
100
AcDbEntity
  8
CUTFILE
  6
CONTINUOUS
 62
           7
100
AcDbCircle
 10
79.593564290709
 20
-41.295340204427
 30
0.0
 40
0.124999999997
100
AcDbArc
 50
270.0
 51
339.676643554435
  0
ARC
  5
54
100
AcDbEntity
  8
CUTFILE
  6
CONTINUOUS
 62
           7
100
AcDbCircle
 10
85.520199086269
 20
-41.295340204427
 30
0.0
 40
0.124999999997
100
AcDbArc
 50
200.323356445565
 51
270.0
  0
LINE
  5
55
100
AcDbEntity
  8
CUTFILE
  6
CONTINUOUS
 62
           7
100
AcDbLine
 10
70.556881688486
 20
-35.670340204424
 30
0.0
 11
70.556881688486
 21
-35.795340204424
 31
0.0
  0
LINE
  5
56
100
AcDbEntity
  8
CUTFILE
  6
CONTINUOUS
 62
           7
100
AcDbLine
 10
70.556881688486
 20
-38.045340204424
 30
0.0
 11
70.556881688486
 21
-38.170340204424
 31
0.0
  0
ARC
  5
57
100
AcDbEntity
  8
CUTFILE
  6
CONTINUOUS
 62
           7
100
AcDbCircle
 10
71.306881688486
 20
-36.920340204424
 30
0.0
 40
1.0
100
AcDbArc
 50
269.999945368703
 51
450.000054631297
  0
LINE
  5
58
100
AcDbEntity
  8
CUTFILE
  6
CONTINUOUS
 62
           7
100
AcDbLine
 10
71.306881688486
 20
-37.920340204424
 30
0.0
 11
70.681881688486
 21
-37.920340204424
 31
0.0
  0
LINE
  5
59
100
AcDbEntity
  8
CUTFILE
  6
CONTINUOUS
 62
           7
100
AcDbLine
 10
71.306881688486
 20
-35.920340204424
 30
0.0
 11
70.681881688486
 21
-35.920340204424
 31
0.0
  0
ARC
  5
5A
100
AcDbEntity
  8
CUTFILE
  6
CONTINUOUS
 62
           7
100
AcDbCircle
 10
70.681881688486
 20
-38.045340204424
 30
0.0
 40
0.125
100
AcDbArc
 50
90.0
 51
180.000000000016
  0
ARC
  5
5B
100
AcDbEntity
  8
CUTFILE
  6
CONTINUOUS
 62
           7
100
AcDbCircle
 10
70.681881688486
 20
-35.795340204424
 30
0.0
 40
0.125
100
AcDbArc
 50
180.0
 51
270.000000000004
  0
LINE
  5
5C
100
AcDbEntity
  8
CUTFILE
  6
CONTINUOUS
 62
           7
100
AcDbLine
 10
94.556881688487
 20
-35.670340204424
 30
0.0
 11
94.556881688487
 21
-35.795340204424
 31
0.0
  0
LINE
  5
5D
100
AcDbEntity
  8
CUTFILE
  6
CONTINUOUS
 62
           7
100
AcDbLine
 10
94.556881688487
 20
-38.045340204424
 30
0.0
 11
94.556881688487
 21
-38.170340204424
 31
0.0
  0
ARC
  5
5E
100
AcDbEntity
  8
CUTFILE
  6
CONTINUOUS
 62
           7
100
AcDbCircle
 10
93.806881688487
 20
-36.920340204424
 30
0.0
 40
1.0
100
AcDbArc
 50
89.999945368703
 51
270.000054631297
  0
LINE
  5
5F
100
AcDbEntity
  8
CUTFILE
  6
CONTINUOUS
 62
           7
100
AcDbLine
 10
93.806881688487
 20
-37.920340204424
 30
0.0
 11
94.431881688487
 21
-37.920340204424
 31
0.0
  0
LINE
  5
60
100
AcDbEntity
  8
CUTFILE
  6
CONTINUOUS
 62
           7
100
AcDbLine
 10
93.806881688487
 20
-35.920340204424
 30
0.0
 11
94.431881688487
 21
-35.920340204424
 31
0.0
  0
ARC
  5
61
100
AcDbEntity
  8
CUTFILE
  6
CONTINUOUS
 62
           7
100
AcDbCircle
 10
94.431881688487
 20
-38.045340204424
 30
0.0
 40
0.125
100
AcDbArc
 50
359.999999999984
 51
450.0
  0
ARC
  5
62
100
AcDbEntity
  8
CUTFILE
  6
CONTINUOUS
 62
           7
100
AcDbCircle
 10
94.431881688487
 20
-35.795340204424
 30
0.0
 40
0.125
100
AcDbArc
 50
269.999999999992
 51
360.0
  0
LINE
  5
63
100
AcDbEntity
  8
CUTFILE
  6
CONTINUOUS
 62
           7
 48
12.0
100
AcDbLine
 10
82.056881688486
 20
-34.612840204424
 30
0.0
 11
83.056881688486
 21
-34.612840204424
 31
0.0
  0
LINE
  5
64
100
AcDbEntity
  8
CUTFILE
  6
CONTINUOUS
 62
           7
 48
12.0
100
AcDbLine
 10
83.056881688486
 20
-34.441371253467
 30
0.0
 11
83.056881688486
 21
-34.612840204424
 31
0.0
  0
LINE
  5
65
100
AcDbEntity
  8
CUTFILE
  6
CONTINUOUS
 62
           7
 48
12.0
100
AcDbLine
 10
82.056881688486
 20
-34.612840204424
 30
0.0
 11
82.056881688486
 21
-34.441371253468
 31
0.0
  0
LINE
  5
66
100
AcDbEntity
  8
CUTFILE
  6
CONTINUOUS
 62
           7
 48
12.0
100
AcDbLine
 10
84.872233034619
 20
-33.66288989007
 30
0.0
 11
85.442301742129
 21
-32.841292866756
 31
0.0
  0
LINE
  5
67
100
AcDbEntity
  8
CUTFILE
  6
CONTINUOUS
 62
           7
 48
12.0
100
AcDbLine
 10
85.301423362432
 20
-32.743543783506
 30
0.0
 11
85.442301742129
 21
-32.841292866756
 31
0.0
  0
LINE
  5
68
100
AcDbEntity
  8
CUTFILE
  6
CONTINUOUS
 62
           7
 48
12.0
100
AcDbLine
 10
84.872233034619
 20
-33.66288989007
 30
0.0
 11
84.731354654923
 21
-33.565140806821
 31
0.0
  0
LINE
  5
69
100
AcDbEntity
  8
CUTFILE
  6
CONTINUOUS
 62
           7
 48
12.0
100
AcDbLine
 10
80.241530342353
 20
-33.66288989007
 30
0.0
 11
79.671461634844
 21
-32.841292866756
 31
0.0
  0
LINE
  5
6A
100
AcDbEntity
  8
CUTFILE
  6
CONTINUOUS
 62
           7
 48
12.0
100
AcDbLine
 10
79.812340014541
 20
-32.743543783506
 30
0.0
 11
79.671461634844
 21
-32.841292866756
 31
0.0
  0
LINE
  5
6B
100
AcDbEntity
  8
CUTFILE
  6
CONTINUOUS
 62
           7
 48
12.0
100
AcDbLine
 10
80.241530342353
 20
-33.66288989007
 30
0.0
 11
80.38240872205
 21
-33.565140806821
 31
0.0
  0
ARC
  5
6C
100
AcDbEntity
  8
CUTFILE
  6
CONTINUOUS
 62
           7
100
AcDbCircle
 10
82.556881688484
 20
-42.392878083212
 30
0.0
 40
3.035037878788
100
AcDbArc
 50
99.482281312246
 51
135.762701611771
  0
ARC
  5
6D
100
AcDbEntity
  8
CUTFILE
  6
CONTINUOUS
 62
           7
100
AcDbCircle
 10
82.556881688484
 20
-42.392878083212
 30
0.0
 40
3.035037878788
100
AcDbArc
 50
44.237298388188
 51
80.517718687682
  0
LINE
  5
6E
100
AcDbEntity
  8
CUTFILE
  6
CONTINUOUS
 62
           7
 48
12.0
100
AcDbLine
 10
82.056881688486
 20
-39.227840204424
 30
0.0
 11
83.056881688486
 21
-39.227840204424
 31
0.0
  0
LINE
  5
6F
100
AcDbEntity
  8
CUTFILE
  6
CONTINUOUS
 62
           7
 48
12.0
100
AcDbLine
 10
83.056881688486
 20
-39.399309155381
 30
0.0
 11
83.056881688486
 21
-39.227840204424
 31
0.0
  0
LINE
  5
70
100
AcDbEntity
  8
CUTFILE
  6
CONTINUOUS
 62
           7
 48
12.0
100
AcDbLine
 10
82.056881688486
 20
-39.227840204424
 30
0.0
 11
82.056881688486
 21
-39.39930915538
 31
0.0
  0
LINE
  5
71
100
AcDbEntity
  8
CUTFILE
  6
CONTINUOUS
 62
           7
 48
12.0
100
AcDbLine
 10
84.872233034619
 20
-40.177790518777
 30
0.0
 11
84.731354654923
 21
-40.275539602027
 31
0.0
  0
LINE
  5
72
100
AcDbEntity
  8
CUTFILE
  6
CONTINUOUS
 62
           7
 48
12.0
100
AcDbLine
 10
80.241530342353
 20
-40.177790518777
 30
0.0
 11
80.38240872205
 21
-40.275539602027
 31
0.0
  0
LINE
  5
73
100
AcDbEntity
  8
CUTFILE
  6
CONTINUOUS
 62
           7
 48
12.0
100
AcDbLine
 10
80.241530342353
 20
-40.177790518777
 30
0.0
 11
79.671461634844
 21
-40.999387542092
 31
0.0
  0
ARC
  5
74
100
AcDbEntity
  8
CUTFILE
  6
CONTINUOUS
 62
           7
100
AcDbCircle
 10
82.556881688484
 20
-42.392878083212
 30
0.0
 40
3.035037878788
100
AcDbArc
 50
154.727264236335
 51
159.67664355301
  0
LINE
  5
75
100
AcDbEntity
  8
CUTFILE
  6
CONTINUOUS
 62
           7
 48
12.0
100
AcDbLine
 10
79.812340014541
 20
-41.097136625342
 30
0.0
 11
79.671461634844
 21
-40.999387542092
 31
0.0
  0
ARC
  5
76
100
AcDbEntity
  8
CUTFILE
  6
CONTINUOUS
 62
           7
100
AcDbCircle
 10
82.556881688484
 20
-42.392878083212
 30
0.0
 40
3.035037878788
100
AcDbArc
 50
20.32335644699
 51
25.272735763624
  0
LINE
  5
77
100
AcDbEntity
  8
CUTFILE
  6
CONTINUOUS
 62
           7
 48
12.0
100
AcDbLine
 10
85.301423362432
 20
-41.097136625342
 30
0.0
 11
85.442301742129
 21
-40.999387542092
 31
0.0
  0
LINE
  5
78
100
AcDbEntity
  8
CUTFILE
  6
CONTINUOUS
 62
           7
 48
12.0
100
AcDbLine
 10
84.872233034619
 20
-40.177790518777
 30
0.0
 11
85.442301742129
 21
-40.999387542092
 31
0.0
  0
LINE
  5
79
100
AcDbEntity
  8
CUTFILE
  6
CONTINUOUS
 62
           7
100
AcDbLine
 10
95.181881688489
 20
-35.420340204416
 30
0.0
 11
94.556881688487
 21
-35.420340204417
 31
0.0
  0
LINE
  5
7A
100
AcDbEntity
  8
CUTFILE
  6
CONTINUOUS
 62
           7
100
AcDbLine
 10
95.181881688489
 20
-38.420340204431
 30
0.0
 11
94.556881688487
 21
-38.420340204431
 31
0.0
  0
LINE
  5
7B
100
AcDbEntity
  8
CUTFILE
  6
CONTINUOUS
 62
           7
 48
12.0
100
AcDbLine
 10
70.806881688486
 20
-35.545340204424
 30
0.0
 11
70.556881688486
 21
-35.420340204424
 31
0.0
  0
LINE
  5
7C
100
AcDbEntity
  8
CUTFILE
  6
CONTINUOUS
 62
           7
 48
12.0
100
AcDbLine
 10
70.806881688486
 20
-35.545340204424
 30
0.0
 11
70.556881688486
 21
-35.670340204424
 31
0.0
  0
LINE
  5
7D
100
AcDbEntity
  8
CUTFILE
  6
CONTINUOUS
 62
           7
 48
12.0
100
AcDbLine
 10
71.806881688486
 20
-35.545340204424
 30
0.0
 11
72.806881688486
 21
-35.545340204424
 31
0.0
  0
LINE
  5
7E
100
AcDbEntity
  8
CUTFILE
  6
CONTINUOUS
 62
           7
 48
12.0
100
AcDbLine
 10
82.056881688486
 20
-35.545340204424
 30
0.0
 11
83.056881688486
 21
-35.545340204424
 31
0.0
  0
LINE
  5
7F
100
AcDbEntity
  8
CUTFILE
  6
CONTINUOUS
 62
           7
 48
12.0
100
AcDbLine
 10
76.931881688486
 20
-35.545340204424
 30
0.0
 11
77.931881688486
 21
-35.545340204424
 31
0.0
  0
LINE
  5
80
100
AcDbEntity
  8
CUTFILE
  6
CONTINUOUS
 62
           7
 48
12.0
100
AcDbLine
 10
94.306881688486
 20
-35.545340204414
 30
0.0
 11
94.556881688486
 21
-35.420340204414
 31
0.0
  0
LINE
  5
81
100
AcDbEntity
  8
CUTFILE
  6
CONTINUOUS
 62
           7
 48
12.0
100
AcDbLine
 10
94.306881688486
 20
-35.545340204414
 30
0.0
 11
94.556881688486
 21
-35.670340204414
 31
0.0
  0
LINE
  5
82
100
AcDbEntity
  8
CUTFILE
  6
CONTINUOUS
 62
           7
 48
12.0
100
AcDbLine
 10
93.306881688486
 20
-35.545340204415
 30
0.0
 11
92.306881688486
 21
-35.545340204416
 31
0.0
  0
LINE
  5
83
100
AcDbEntity
  8
CUTFILE
  6
CONTINUOUS
 62
           7
 48
12.0
100
AcDbLine
 10
88.181881688486
 20
-35.545340204419
 30
0.0
 11
87.181881688486
 21
-35.54534020442
 31
0.0
  0
LINE
  5
84
100
AcDbEntity
  8
CUTFILE
  6
CONTINUOUS
 62
           7
 48
12.0
100
AcDbLine
 10
70.806881688486
 20
-38.295340204424
 30
0.0
 11
70.556881688486
 21
-38.420340204424
 31
0.0
  0
LINE
  5
85
100
AcDbEntity
  8
CUTFILE
  6
CONTINUOUS
 62
           7
 48
12.0
100
AcDbLine
 10
70.806881688486
 20
-38.295340204424
 30
0.0
 11
70.556881688486
 21
-38.170340204424
 31
0.0
  0
LINE
  5
86
100
AcDbEntity
  8
CUTFILE
  6
CONTINUOUS
 62
           7
 48
12.0
100
AcDbLine
 10
71.806881688486
 20
-38.295340204424
 30
0.0
 11
72.806881688486
 21
-38.295340204424
 31
0.0
  0
LINE
  5
87
100
AcDbEntity
  8
CUTFILE
  6
CONTINUOUS
 62
           7
 48
12.0
100
AcDbLine
 10
76.931881688486
 20
-38.295340204424
 30
0.0
 11
77.931881688486
 21
-38.295340204424
 31
0.0
  0
LINE
  5
88
100
AcDbEntity
  8
CUTFILE
  6
CONTINUOUS
 62
           7
 48
12.0
100
AcDbLine
 10
82.056881688486
 20
-38.295340204424
 30
0.0
 11
83.056881688486
 21
-38.295340204424
 31
0.0
  0
LINE
  5
89
100
AcDbEntity
  8
CUTFILE
  6
CONTINUOUS
 62
           7
 48
12.0
100
AcDbLine
 10
88.181881688486
 20
-38.295340204429
 30
0.0
 11
87.181881688486
 21
-38.295340204428
 31
0.0
  0
LINE
  5
8A
100
AcDbEntity
  8
CUTFILE
  6
CONTINUOUS
 62
           7
 48
12.0
100
AcDbLine
 10
93.306881688486
 20
-38.295340204433
 30
0.0
 11
92.306881688486
 21
-38.295340204432
 31
0.0
  0
LINE
  5
8B
100
AcDbEntity
  8
CUTFILE
  6
CONTINUOUS
 62
           7
 48
12.0
100
AcDbLine
 10
94.306881688486
 20
-38.295340204434
 30
0.0
 11
94.556881688486
 21
-38.420340204434
 31
0.0
  0
LINE
  5
8C
100
AcDbEntity
  8
CUTFILE
  6
CONTINUOUS
 62
           7
 48
12.0
100
AcDbLine
 10
94.306881688486
 20
-38.295340204434
 30
0.0
 11
94.556881688486
 21
-38.170340204434
 31
0.0
  0
ARC
  5
8D
100
AcDbEntity
  8
CUTFILE
  6
CONTINUOUS
 62
           7
 48
12.0
100
AcDbCircle
 10
71.095944188482
 20
-34.65244641137
 30
0.0
 40
0.103126762156
100
AcDbArc
 50
189.992112394357
 51
350.007887606185
  0
ARC
  5
8E
100
AcDbEntity
  8
CUTFILE
  6
CONTINUOUS
 62
           7
 48
12.0
100
AcDbCircle
 10
78.627194188486
 20
-33.387295156732
 30
0.0
 40
0.106803167996
100
AcDbArc
 50
198.023158743834
 51
341.97684125555
  0
ARC
  5
8F
100
AcDbEntity
  8
CUTFILE
  6
CONTINUOUS
 62
           7
100
AcDbCircle
 10
86.650631688976
 20
-33.420340204264
 30
0.0
 40
0.203125
100
AcDbArc
 50
0.0
 51
356.063249245121
  0
ARC
  5
90
100
AcDbEntity
  8
CUTFILE
  6
CONTINUOUS
 62
           7
 48
12.0
100
AcDbCircle
 10
86.752194188977
 20
-33.387295156572
 30
0.0
 40
0.106803167996
100
AcDbArc
 50
198.023158743834
 51
341.97684125555
  0
ARC
  5
91
100
AcDbEntity
  8
CUTFILE
  6
CONTINUOUS
 62
           7
100
AcDbCircle
 10
94.119381688484
 20
-34.670340204424
 30
0.0
 40
0.203125
100
AcDbArc
 50
0.000001291828
 51
354.570620269095
  0
ARC
  5
92
100
AcDbEntity
  8
CUTFILE
  6
CONTINUOUS
 62
           7
 48
12.0
100
AcDbCircle
 10
94.220944188482
 20
-34.65244641137
 30
0.0
 40
0.103126762156
100
AcDbArc
 50
189.992112394357
 51
350.007887606185
  0
ARC
  5
93
100
AcDbEntity
  8
CUTFILE
  6
CONTINUOUS
 62
           7
100
AcDbCircle
 10
70.994381688489
 20
-39.170340204424
 30
0.0
 40
0.203125
100
AcDbArc
 50
0.000001291828
 51
354.570620269095
  0
ARC
  5
94
100
AcDbEntity
  8
CUTFILE
  6
CONTINUOUS
 62
           7
 48
12.0
100
AcDbCircle
 10
71.095944188486
 20
-39.15244641137
 30
0.0
 40
0.103126762156
100
AcDbArc
 50
189.992112394357
 51
350.007887606185
  0
ARC
  5
95
100
AcDbEntity
  8
CUTFILE
  6
CONTINUOUS
 62
           7
100
AcDbCircle
 10
94.119381688489
 20
-39.170340204424
 30
0.0
 40
0.203125
100
AcDbArc
 50
0.000001291828
 51
354.570620269095
  0
ARC
  5
96
100
AcDbEntity
  8
CUTFILE
  6
CONTINUOUS
 62
           7
 48
12.0
100
AcDbCircle
 10
94.220944188486
 20
-39.15244641137
 30
0.0
 40
0.103126762156
100
AcDbArc
 50
189.992112394357
 51
350.007887606185
  0
ARC
  5
97
100
AcDbEntity
  8
CUTFILE
  6
CONTINUOUS
 62
           7
100
AcDbCircle
 10
86.650631688489
 20
-40.420340204424
 30
0.0
 40
0.203125
100
AcDbArc
 50
0.000001291828
 51
354.570620269095
  0
ARC
  5
98
100
AcDbEntity
  8
CUTFILE
  6
CONTINUOUS
 62
           7
 48
12.0
100
AcDbCircle
 10
86.752194188486
 20
-40.40244641137
 30
0.0
 40
0.103126762156
100
AcDbArc
 50
189.992112394357
 51
350.007887606185
  0
ARC
  5
99
100
AcDbEntity
  8
CUTFILE
  6
CONTINUOUS
 62
           7
100
AcDbCircle
 10
78.525631688489
 20
-40.420340204424
 30
0.0
 40
0.203125
100
AcDbArc
 50
0.000001291828
 51
354.570620269095
  0
ARC
  5
9A
100
AcDbEntity
  8
CUTFILE
  6
CONTINUOUS
 62
           7
 48
12.0
100
AcDbCircle
 10
78.627194188486
 20
-40.40244641137
 30
0.0
 40
0.103126762156
100
AcDbArc
 50
189.992112394357
 51
350.007887606185
  0
ARC
  5
9B
100
AcDbEntity
  8
CUTFILE
  6
CONTINUOUS
 62
           7
 48
12.0
100
AcDbCircle
 10
89.119381688484
 20
-34.00524415292
 30
0.0
 40
0.213733946375
100
AcDbArc
 50
208.686550153782
 51
331.313449846417
  0
ARC
  5
9C
100
AcDbEntity
  8
CUTFILE
  6
CONTINUOUS
 62
           7
 48
12.0
100
AcDbCircle
 10
89.072506688489
 20
-39.692732854696
 30
0.0
 40
0.146232657521
100
AcDbArc
 50
195.918564044605
 51
344.081435955512
  0
LINE
  5
9D
100
AcDbEntity
  8
CUTFILE
  6
CONTINUOUS
 62
           7
 48
12.0
100
AcDbLine
 10
95.691013291893
 20
-37.895340204424
 30
0.0
 11
95.821013291893
 21
-37.895340204424
 31
0.0
  0
LINE
  5
9E
100
AcDbEntity
  8
CUTFILE
  6
CONTINUOUS
 62
           7
 48
12.0
100
AcDbLine
 10
95.821013291893
 20
-36.995340204424
 30
0.0
 11
95.691013291893
 21
-36.995340204424
 31
0.0
  0
LINE
  5
9F
100
AcDbEntity
  8
CUTFILE
  6
CONTINUOUS
 62
           7
 48
12.0
100
AcDbLine
 10
95.691013291893
 20
-37.895340204424
 30
0.0
 11
95.691013291893
 21
-36.995340204424
 31
0.0
  0
LINE
  5
A0
100
AcDbEntity
  8
CUTFILE
  6
CONTINUOUS
 62
           7
 48
12.0
100
AcDbLine
 10
95.691013291893
 20
-34.973340204424
 30
0.0
 11
95.821013291893
 21
-34.973340204424
 31
0.0
  0
LINE
  5
A1
100
AcDbEntity
  8
CUTFILE
  6
CONTINUOUS
 62
           7
 48
12.0
100
AcDbLine
 10
95.821013291893
 20
-34.073340204424
 30
0.0
 11
95.691013291893
 21
-34.073340204424
 31
0.0
  0
LINE
  5
A2
100
AcDbEntity
  8
CUTFILE
  6
CONTINUOUS
 62
           7
 48
12.0
100
AcDbLine
 10
95.691013291893
 20
-34.973340204424
 30
0.0
 11
95.691013291893
 21
-34.073340204424
 31
0.0
  0
LINE
  5
A3
100
AcDbEntity
  8
CUTFILE
  6
CONTINUOUS
 62
           7
 48
12.0
100
AcDbLine
 10
95.691013291893
 20
-39.917340204424
 30
0.0
 11
95.821013291893
 21
-39.917340204424
 31
0.0
  0
LINE
  5
A4
100
AcDbEntity
  8
CUTFILE
  6
CONTINUOUS
 62
           7
 48
12.0
100
AcDbLine
 10
95.821013291893
 20
-40.817340204424
 30
0.0
 11
95.691013291893
 21
-40.817340204424
 31
0.0
  0
LINE
  5
A5
100
AcDbEntity
  8
CUTFILE
  6
CONTINUOUS
 62
           7
 48
12.0
100
AcDbLine
 10
95.691013291893
 20
-39.917340204424
 30
0.0
 11
95.691013291893
 21
-40.817340204424
 31
0.0
  0
LINE
  5
A6
100
AcDbEntity
  8
CUTFILE
  6
CONTINUOUS
 62
           7
 48
12.0
100
AcDbLine
 10
95.821013291893
 20
-40.817340204424
 30
0.0
 11
95.821013291893
 21
-41.420340204424
 31
0.0
  0
LINE
  5
A7
100
AcDbEntity
  8
CUTFILE
  6
CONTINUOUS
 62
           7
 48
12.0
100
AcDbLine
 10
95.821013291893
 20
-39.917340204424
 30
0.0
 11
95.821013291893
 21
-37.895340204424
 31
0.0
  0
LINE
  5
A8
100
AcDbEntity
  8
CUTFILE
  6
CONTINUOUS
 62
           7
 48
12.0
100
AcDbLine
 10
95.821013291893
 20
-36.995340204424
 30
0.0
 11
95.821013291893
 21
-34.973340204424
 31
0.0
  0
LINE
  5
A9
100
AcDbEntity
  8
CUTFILE
  6
CONTINUOUS
 62
           7
 48
12.0
100
AcDbLine
 10
95.821013291893
 20
-34.073340204424
 30
0.0
 11
95.821013291893
 21
-33.470340204424
 31
0.0
  0
LINE
  5
AA
100
AcDbEntity
  8
CUTFILE
  6
CONTINUOUS
 62
           7
 48
12.0
100
AcDbLine
 10
98.441013291893
 20
-37.895340204424
 30
0.0
 11
98.311013291893
 21
-37.895340204424
 31
0.0
  0
LINE
  5
AB
100
AcDbEntity
  8
CUTFILE
  6
CONTINUOUS
 62
           7
 48
12.0
100
AcDbLine
 10
98.311013291893
 20
-36.995340204424
 30
0.0
 11
98.441013291893
 21
-36.995340204424
 31
0.0
  0
LINE
  5
AC
100
AcDbEntity
  8
CUTFILE
  6
CONTINUOUS
 62
           7
 48
12.0
100
AcDbLine
 10
98.441013291893
 20
-37.895340204424
 30
0.0
 11
98.441013291893
 21
-36.995340204424
 31
0.0
  0
LINE
  5
AD
100
AcDbEntity
  8
CUTFILE
  6
CONTINUOUS
 62
           7
 48
12.0
100
AcDbLine
 10
98.441013291893
 20
-34.973340204424
 30
0.0
 11
98.311013291893
 21
-34.973340204424
 31
0.0
  0
LINE
  5
AE
100
AcDbEntity
  8
CUTFILE
  6
CONTINUOUS
 62
           7
 48
12.0
100
AcDbLine
 10
98.311013291893
 20
-34.073340204424
 30
0.0
 11
98.441013291893
 21
-34.073340204424
 31
0.0
  0
LINE
  5
AF
100
AcDbEntity
  8
CUTFILE
  6
CONTINUOUS
 62
           7
 48
12.0
100
AcDbLine
 10
98.441013291893
 20
-34.973340204424
 30
0.0
 11
98.441013291893
 21
-34.073340204424
 31
0.0
  0
LINE
  5
B0
100
AcDbEntity
  8
CUTFILE
  6
CONTINUOUS
 62
           7
 48
12.0
100
AcDbLine
 10
98.441013291893
 20
-39.917340204424
 30
0.0
 11
98.311013291893
 21
-39.917340204424
 31
0.0
  0
LINE
  5
B1
100
AcDbEntity
  8
CUTFILE
  6
CONTINUOUS
 62
           7
 48
12.0
100
AcDbLine
 10
98.311013291893
 20
-40.817340204424
 30
0.0
 11
98.441013291893
 21
-40.817340204424
 31
0.0
  0
LINE
  5
B2
100
AcDbEntity
  8
CUTFILE
  6
CONTINUOUS
 62
           7
 48
12.0
100
AcDbLine
 10
98.441013291893
 20
-39.917340204424
 30
0.0
 11
98.441013291893
 21
-40.817340204424
 31
0.0
  0
LINE
  5
B3
100
AcDbEntity
  8
CUTFILE
  6
CONTINUOUS
 62
           7
 48
12.0
100
AcDbLine
 10
98.311013291893
 20
-40.817340204424
 30
0.0
 11
98.311013291893
 21
-41.420340204424
 31
0.0
  0
LINE
  5
B4
100
AcDbEntity
  8
CUTFILE
  6
CONTINUOUS
 62
           7
 48
12.0
100
AcDbLine
 10
98.311013291893
 20
-39.917340204424
 30
0.0
 11
98.311013291893
 21
-37.895340204424
 31
0.0
  0
LINE
  5
B5
100
AcDbEntity
  8
CUTFILE
  6
CONTINUOUS
 62
           7
 48
12.0
100
AcDbLine
 10
98.311013291893
 20
-36.995340204424
 30
0.0
 11
98.311013291893
 21
-34.973340204424
 31
0.0
  0
LINE
  5
B6
100
AcDbEntity
  8
CUTFILE
  6
CONTINUOUS
 62
           7
 48
12.0
100
AcDbLine
 10
98.311013291893
 20
-34.073340204424
 30
0.0
 11
98.311013291893
 21
-33.470340204424
 31
0.0
  0
LINE
  5
B7
100
AcDbEntity
  8
CUTFILE
  6
CONTINUOUS
 62
           7
 48
12.0
100
AcDbLine
 10
95.821013291893
 20
-33.470340204424
 30
0.0
 11
98.311013291893
 21
-33.470340204424
 31
0.0
  0
LINE
  5
B8
100
AcDbEntity
  8
CUTFILE
  6
CONTINUOUS
 62
           7
 48
12.0
100
AcDbLine
 10
98.311013291893
 20
-41.420340204424
 30
0.0
 11
95.821013291893
 21
-41.420340204424
 31
0.0
  0
ENDSEC
  0
SECTION
  2
OBJECTS
  0
DICTIONARY
  5
19
100
AcDbDictionary
  3
ACAD_GROUP
350
1A
  3
ACAD_MLINESTYLE
350
1B
  0
DICTIONARY
  5
1A
102
{ACAD_REACTORS
330
19
102
}
100
AcDbDictionary
  0
DICTIONARY
  5
1B
102
{ACAD_REACTORS
330
19
102
}
100
AcDbDictionary
  3
STANDARD
350
1C
  0
MLINESTYLE
  5
1C
102
{ACAD_REACTORS
330
1B
102
}
100
AcDbMlineStyle
  2
STANDARD
 70
           0
  3

 62
           0
 51
90.0
 52
90.0
 71
           2
 49
0.5
 62
         256
  6
BYLAYER
 49
-0.5
 62
         256
  6
BYLAYER
  0
ENDSEC
  0
EOF
