  0
SECTION
  2
HEADER
  9
$ACADVER
  1
AC1014
  9
$ACADMAINTVER
 70
           0
  9
$DWGCODEPAGE
  3
ANSI_1252
  9
$INSBASE
 10
0.0
 20
0.0
 30
0.0
  9
$EXTMIN
 10
255.041260834605
 20
183.505540074131
 30
0.0
  9
$EXTMAX
 10
271.973260834605
 20
195.271540074131
 30
0.0
  9
$LIMMIN
 10
255.041260834605
 20
183.505540074131
  9
$LIMMAX
 10
271.973260834605
 20
195.271540074131
  9
$ORTHOMODE
 70
           0
  9
$REGENMODE
 70
           1
  9
$FILLMODE
 70
           1
  9
$QTEXTMODE
 70
           0
  9
$MIRRTEXT
 70
           1
  9
$DRAGMODE
 70
           2
  9
$LTSCALE
 40
1.0
  9
$OSMODE
 70
           0
  9
$ATTMODE
 70
           1
  9
$TEXTSIZE
 40
0.2
  9
$TRACEWID
 40
0.05
  9
$TEXTSTYLE
  7
STANDARD
  9
$CLAYER
  8
CUT
  9
$CELTYPE
  6
CONTINUOUS
  9
$CECOLOR
 62
         256
  9
$CELTSCALE
 40
1.0
  9
$DELOBJ
 70
           1
  9
$DISPSILH
 70
           0
  9
$DIMSCALE
 40
1.0
  9
$DIMASZ
 40
0.18
  9
$DIMEXO
 40
0.0625
  9
$DIMDLI
 40
0.38
  9
$DIMRND
 40
0.0
  9
$DIMDLE
 40
0.0
  9
$DIMEXE
 40
0.18
  9
$DIMTP
 40
0.0
  9
$DIMTM
 40
0.0
  9
$DIMTXT
 40
0.18
  9
$DIMCEN
 40
0.09
  9
$DIMTSZ
 40
0.0
  9
$DIMTOL
 70
           0
  9
$DIMLIM
 70
           0
  9
$DIMTIH
 70
           1
  9
$DIMTOH
 70
           1
  9
$DIMSE1
 70
           0
  9
$DIMSE2
 70
           0
  9
$DIMTAD
 70
           0
  9
$DIMZIN
 70
           0
  9
$DIMBLK
  1

  9
$DIMASO
 70
           1
  9
$DIMSHO
 70
           1
  9
$DIMPOST
  1

  9
$DIMAPOST
  1

  9
$DIMALT
 70
           0
  9
$DIMALTD
 70
           2
  9
$DIMALTF
 40
25.4
  9
$DIMLFAC
 40
1.0
  9
$DIMTOFL
 70
           0
  9
$DIMTVP
 40
0.0
  9
$DIMTIX
 70
           0
  9
$DIMSOXD
 70
           0
  9
$DIMSAH
 70
           0
  9
$DIMBLK1
  1

  9
$DIMBLK2
  1

  9
$DIMSTYLE
  2
STANDARD
  9
$DIMCLRD
 70
           0
  9
$DIMCLRE
 70
           0
  9
$DIMCLRT
 70
           0
  9
$DIMTFAC
 40
1.0
  9
$DIMGAP
 40
0.09
  9
$DIMJUST
 70
           0
  9
$DIMSD1
 70
           0
  9
$DIMSD2
 70
           0
  9
$DIMTOLJ
 70
           1
  9
$DIMTZIN
 70
           0
  9
$DIMALTZ
 70
           0
  9
$DIMALTTZ
 70
           0
  9
$DIMFIT
 70
           3
  9
$DIMUPT
 70
           0
  9
$DIMUNIT
 70
           3
  9
$DIMDEC
 70
           4
  9
$DIMTDEC
 70
           4
  9
$DIMALTU
 70
           2
  9
$DIMALTTD
 70
           2
  9
$DIMTXSTY
  7
STANDARD
  9
$DIMAUNIT
 70
           0
  9
$LUNITS
 70
           3
  9
$LUPREC
 70
           5
  9
$SKETCHINC
 40
0.1
  9
$FILLETRAD
 40
0.0
  9
$AUNITS
 70
           0
  9
$AUPREC
 70
           0
  9
$MENU
  1
acad
  9
$ELEVATION
 40
0.0
  9
$PELEVATION
 40
0.0
  9
$THICKNESS
 40
0.0
  9
$LIMCHECK
 70
           0
  9
$BLIPMODE
 70
           1
  9
$CHAMFERA
 40
0.0
  9
$CHAMFERB
 40
0.0
  9
$CHAMFERC
 40
0.0
  9
$CHAMFERD
 40
0.0
  9
$SKPOLY
 70
           0
  9
$TDCREATE
 40
0.000000000
  9
$TDUPDATE
 40
0.000000000
  9
$TDINDWG
 40
0.0000000000
  9
$TDUSRTIMER
 40
0.0000000000
  9
$USRTIMER
 70
           1
  9
$ANGBASE
 50
0.0
  9
$ANGDIR
 70
           0
  9
$PDMODE
 70
           0
  9
$PDSIZE
 40
0.0
  9
$PLINEWID
 40
0.0
  9
$COORDS
 70
           0
  9
$SPLFRAME
 70
           0
  9
$SPLINETYPE
 70
           6
  9
$SPLINESEGS
 70
           8
  9
$ATTDIA
 70
           0
  9
$ATTREQ
 70
           1
  9
$HANDLING
 70
           1
  9
$HANDSEED
  5
A9
  9
$SURFTAB1
 70
           6
  9
$SURFTAB2
 70
           6
  9
$SURFTYPE
 70
           6
  9
$SURFU
 70
           6
  9
$SURFV
 70
           6
  9
$UCSNAME
  2

  9
$UCSORG
 10
0.0
 20
0.0
 30
0.0
  9
$UCSXDIR
 10
1.0
 20
0.0
 30
0.0
  9
$UCSYDIR
 10
0.0
 20
1.0
 30
0.0
  9
$PUCSNAME
  2

  9
$PUCSORG
 10
0.0
 20
0.0
 30
0.0
  9
$PUCSXDIR
 10
1.0
 20
0.0
 30
0.0
  9
$PUCSYDIR
 10
0.0
 20
1.0
 30
0.0
  9
$USERI1
 70
           0
  9
$USERI2
 70
           0
  9
$USERI3
 70
           0
  9
$USERI4
 70
           0
  9
$USERI5
 70
           0
  9
$USERR1
 40
0.0
  9
$USERR2
 40
0.0
  9
$USERR3
 40
0.0
  9
$USERR4
 40
0.0
  9
$USERR5
 40
0.0
  9
$WORLDVIEW
 70
           1
  9
$SHADEDGE
 70
           3
  9
$SHADEDIF
 70
          70
  9
$TILEMODE
 70
           1
  9
$MAXACTVP
 70
          16
  9
$PINSBASE
 10
0.0
 20
0.0
 30
0.0
  9
$PLIMCHECK
 70
           0
  9
$PEXTMIN
 10
1.000000000000E+20
 20
1.000000000000E+20
 30
1.000000000000E+20
  9
$PEXTMAX
 10
-1.000000000000E+20
 20
-1.000000000000E+20
 30
-1.000000000000E+20
  9
$PLIMMIN
 10
0.0
 20
0.0
  9
$PLIMMAX
 10
12.0
 20
9.0
  9
$UNITMODE
 70
           0
  9
$VISRETAIN
 70
           1
  9
$PLINEGEN
 70
           1
  9
$PSLTSCALE
 70
           0
  9
$TREEDEPTH
 70
        3020
  9
$PICKSTYLE
 70
           1
  9
$CMLSTYLE
  2
STANDARD
  9
$CMLJUST
 70
           0
  9
$CMLSCALE
 40
1.0
  9
$PROXYGRAPHICS
 70
           0
  9
$MEASUREMENT
 70
           0
  0
ENDSEC
  0
SECTION
  2
CLASSES
  0
CLASS
  1
LWPOLYLINE
  2
AcDbPolyline
  3
"AutoCAD"
 90
        0
280
           0
281
           1
  0
CLASS
  1
IMAGE
  2
AcDbRasterImage
  3
ISM
 90
      127
280
           0
281
           1
  0
CLASS
  1
OLE2FRAME
  2
AcDbOle2Frame
  3
""
 90
        0
280
           0
281
           1
  0
CLASS
  1
HATCH
  2
AcDbHatch
  3
"ACAD_SEDONA"
 90
        0
280
           0
281
           1
  0
CLASS
  1
DICTIONARYVAR
  2
AcDbDictionaryVar
  3
"AutoCAD"
 90
        0
280
           0
281
           0
  0
CLASS
  1
RASTERVARIABLES
  2
AcDbRasterVariables
  3
ISM
 90
        0
280
           0
281
           0
  0
CLASS
  1
IMAGEDEF
  2
AcDbRasterImageDef
  3
ISM
 90
        0
280
           0
281
           0
  0
CLASS
  1
IMAGEDEF_REACTOR
  2
AcDbRasterImageDefReactor
  3
ISM
 90
        1
280
           0
281
           0
  0
CLASS
  1
IDBUFFER
  2
AcDbIdBuffer
  3
"Acad"
 90
        0
280
           0
281
           0
  0
CLASS
  1
SPATIAL_FILTER
  2
AcDbSpatialFilter
  3
"Acad"
 90
        0
280
           0
281
           0
  0
CLASS
  1
XRECORD
  2
AcDbXrecord
  3
"<Built In>"
 90
        0
280
           0
281
           0
  0
CLASS
  1
SORTENTSTABLE
  2
AcDbSortentsTable
  3
"AutoCAD"
 90
        0
280
           0
281
           0
  0
CLASS
  1
LAYER_INDEX
  2
AcDbLayerIndex
  3
"Acad"
 90
        0
280
           0
281
           0
  0
CLASS
  1
SPATIAL_INDEX
  2
AcDbSpatialIndex
  3
"Acad"
 90
        0
280
           0
281
           0
  0
CLASS
  1
OBJECT_PTR
  2
CAseDLPNTableRecord
  3
"ASE-LPNTableRecord"
 90
        1
280
           0
281
           0
  0
CLASS
  1
LAYOUT
  2
AcDbLayout
  3
"AutoCAD 2000"
 90
        0
280
           0
281
           0
  0
CLASS
  1
PLOTSETTINGS
  2
AcDbPlotSettings
  3
"AutoCAD 2000"
 90
        0
280
           0
281
           0
  0
CLASS
  1
ACDBDICTIONARYWDFLT
  2
AcDbDictionaryWithDefault
  3
"AutoCAD 2000"
 90
        0
280
           0
281
           0
  0
CLASS
  1
ACDBPLACEHOLDER
  2
AcDbPlaceHolder
  3
"AutoCAD 2000"
 90
        0
280
           0
281
           0
  0
ENDSEC
  0
SECTION
  2
TABLES
  0
TABLE
  2
VPORT
  5
7
100
AcDbSymbolTable
 70
           1
  0
VPORT
  5
15
100
AcDbSymbolTableRecord
100
AcDbViewportTableRecord
  2
*ACTIVE
 70
           0
 10
0.0
 20
0.0
 11
1.0
 21
1.0
 12
6.591288
 22
4.579184
 13
0.0
 23
0.0
 14
1.0
 24
1.0
 15
0.0
 25
0.0
 16
0.0
 26
0.0
 36
1.0
 17
0.0
 27
0.0
 37
0.0
 40
9.158369
 41
0.688564
 42
50.0
 43
0.0
 44
0.0
 50
0.0
 51
0.0
 71
           0
 72
         100
 73
           1
 74
           1
 75
           0
 76
           0
 77
           0
 78
           0
  0
ENDTAB
  0
TABLE
  2
LTYPE
  5
4
100
AcDbSymbolTable
 70
           3
  0
LTYPE
  5
11
100
AcDbSymbolTableRecord
100
AcDbLinetypeTableRecord
  2
BYBLOCK
 70
          64
  3

 72
          65
 73
           0
 40
0.0
  0
LTYPE
  5
12
100
AcDbSymbolTableRecord
100
AcDbLinetypeTableRecord
  2
BYLAYER
 70
          64
  3

 72
          65
 73
           0
 40
0.0
  0
LTYPE
  5
13
100
AcDbSymbolTableRecord
100
AcDbLinetypeTableRecord
  2
CONTINUOUS
 70
          64
  3
Solid line
 72
          65
 73
           0
 40
0.0
  0
ENDTAB
  0
TABLE
  2
LAYER
  5
2
100
AcDbSymbolTable
 70
           2
  0
LAYER
  5
14
100
AcDbSymbolTableRecord
100
AcDbLayerTableRecord
  2
0
 70
           0
 62
           7
  6
CONTINUOUS
  0
LAYER
  5
1D
100
AcDbSymbolTableRecord
100
AcDbLayerTableRecord
  2
CUT
 70
           0
 62
           7
  6
CONTINUOUS
  0
ENDTAB
  0
TABLE
  2
STYLE
  5
3
100
AcDbSymbolTable
 70
           1
  0
STYLE
  5
17
100
AcDbSymbolTableRecord
100
AcDbTextStyleTableRecord
  2
STANDARD
 70
           0
 40
0.0
 41
1.0
 50
0.0
 71
           0
 42
0.0
  3
txt
  4

  0
ENDTAB
  0
TABLE
  2
VIEW
  5
5
100
AcDbSymbolTable
 70
           0
  0
ENDTAB
  0
TABLE
  2
UCS
  5
6
100
AcDbSymbolTable
 70
           0
  0
ENDTAB
  0
TABLE
  2
APPID
  5
8
100
AcDbSymbolTable
 70
           1
  0
APPID
  5
16
100
AcDbSymbolTableRecord
100
AcDbRegAppTableRecord
  2
ACAD
 70
           0
  0
ENDTAB
  0
TABLE
  2
DIMSTYLE
  5
9
100
AcDbSymbolTable
 70
           1
  0
DIMSTYLE
105
18
100
AcDbSymbolTableRecord
100
AcDbDimStyleTableRecord
  2
STANDARD
 70
           0
  3

  4

  5

  6

  7

 40
1.0
 41
0.18
 42
0.0625
 43
0.38
 44
0.18
 45
0.0
 46
0.0
 47
0.0
 48
0.0
 71
           0
 72
           0
 73
           1
 74
           1
 75
           0
 76
           0
 77
           0
 78
           0
140
0.18
141
0.09
142
0.0
143
25.4
144
1.0
145
0.0
146
1.0
147
0.09
170
           0
171
           2
172
           0
173
           0
174
           0
175
           0
176
           0
177
           0
178
           0
270
           2
271
           4
272
           4
273
           2
274
           2
275
           0
280
           0
281
           0
282
           0
283
           1
284
           0
285
           0
286
           0
287
           3
288
           0
340
17
  0
ENDTAB
  0
TABLE
  2
BLOCK_RECORD
  5
1
100
AcDbSymbolTable
 70
           0
  0
BLOCK_RECORD
  5
A
100
AcDbSymbolTableRecord
100
AcDbBlockTableRecord
  2
*MODEL_SPACE
  0
BLOCK_RECORD
  5
B
100
AcDbSymbolTableRecord
100
AcDbBlockTableRecord
  2
*PAPER_SPACE
  0
ENDTAB
  0
ENDSEC
  0
SECTION
  2
BLOCKS
  0
BLOCK
  5
D
100
AcDbEntity
  8
0
100
AcDbBlockBegin
  2
*MODEL_SPACE
 70
           0
 10
0.0
 20
0.0
 30
0.0
  3
*MODEL_SPACE
  1

  0
ENDBLK
  5
E
100
AcDbEntity
  8
0
100
AcDbBlockEnd
  0
BLOCK
  5
F
100
AcDbEntity
 67
           1
  8
0
100
AcDbBlockBegin
  2
*PAPER_SPACE
 70
           0
 10
0.0
 20
0.0
 30
0.0
  3
*PAPER_SPACE
  1

  0
ENDBLK
  5
10
100
AcDbEntity
 67
           1
  8
0
100
AcDbBlockEnd
  0
ENDSEC
  0
SECTION
  2
ENTITIES
  0
CIRCLE
  5
1E
100
AcDbEntity
  8
CUT
  6
CONTINUOUS
 62
         131
 48
12.0
100
AcDbCircle
 10
261.212260834605
 20
194.810540074131
 30
0.0
 40
0.211
  0
CIRCLE
  5
1F
100
AcDbEntity
  8
CUT
  6
CONTINUOUS
 62
         131
 48
12.0
100
AcDbCircle
 10
266.312260834605
 20
194.810540074131
 30
0.0
 40
0.211
  0
CIRCLE
  5
20
100
AcDbEntity
  8
CUT
  6
CONTINUOUS
 62
         131
 48
12.0
100
AcDbCircle
 10
255.502260834605
 20
186.820540074131
 30
0.0
 40
0.211
  0
CIRCLE
  5
21
100
AcDbEntity
  8
CUT
  6
CONTINUOUS
 62
         131
 48
12.0
100
AcDbCircle
 10
256.022260834605
 20
189.280540074131
 30
0.0
 40
0.211
  0
CIRCLE
  5
22
100
AcDbEntity
  8
CUT
  6
CONTINUOUS
 62
         131
 48
12.0
100
AcDbCircle
 10
256.882260834605
 20
190.260540074131
 30
0.0
 40
0.211
  0
CIRCLE
  5
23
100
AcDbEntity
  8
CUT
  6
CONTINUOUS
 62
         131
 48
12.0
100
AcDbCircle
 10
271.512260834605
 20
187.690540074131
 30
0.0
 40
0.211
  0
CIRCLE
  5
24
100
AcDbEntity
  8
CUT
  6
CONTINUOUS
 62
         131
 48
12.0
100
AcDbCircle
 10
270.982260834605
 20
189.280540074131
 30
0.0
 40
0.211
  0
CIRCLE
  5
25
100
AcDbEntity
  8
CUT
  6
CONTINUOUS
 62
         131
 48
12.0
100
AcDbCircle
 10
270.422260834605
 20
190.630540074131
 30
0.0
 40
0.211
  0
CIRCLE
  5
26
100
AcDbEntity
  8
CUT
  6
CONTINUOUS
 62
         131
100
AcDbCircle
 10
257.574760834605
 20
186.630540074131
 30
0.0
 40
0.2109375
  0
CIRCLE
  5
27
100
AcDbEntity
  8
CUT
  6
CONTINUOUS
 62
         131
100
AcDbCircle
 10
257.637260834605
 20
187.411790074131
 30
0.0
 40
0.18359375
  0
CIRCLE
  5
28
100
AcDbEntity
  8
CUT
  6
CONTINUOUS
 62
         131
100
AcDbCircle
 10
261.387260834605
 20
192.130540074131
 30
0.0
 40
0.2109375
  0
CIRCLE
  5
29
100
AcDbEntity
  8
CUT
  6
CONTINUOUS
 62
         131
100
AcDbCircle
 10
265.418510834605
 20
192.349290074131
 30
0.0
 40
0.18359375
  0
CIRCLE
  5
2A
100
AcDbEntity
  8
CUT
  6
CONTINUOUS
 62
         131
100
AcDbCircle
 10
266.137260834605
 20
192.130540074131
 30
0.0
 40
0.2109375
  0
CIRCLE
  5
2B
100
AcDbEntity
  8
CUT
  6
CONTINUOUS
 62
         131
100
AcDbCircle
 10
267.262260834605
 20
192.255540074131
 30
0.0
 40
0.1328125
  0
CIRCLE
  5
2C
100
AcDbEntity
  8
CUT
  6
CONTINUOUS
 62
         131
100
AcDbCircle
 10
270.762260834605
 20
191.536790074131
 30
0.0
 40
0.1328125
  0
CIRCLE
  5
2D
100
AcDbEntity
  8
CUT
  6
CONTINUOUS
 62
         131
100
AcDbCircle
 10
270.762260834605
 20
188.318040074131
 30
0.0
 40
0.1328125
  0
CIRCLE
  5
2E
100
AcDbEntity
  8
CUT
  6
CONTINUOUS
 62
         131
100
AcDbCircle
 10
269.949760834605
 20
186.630540074131
 30
0.0
 40
0.2109375
  0
CIRCLE
  5
2F
100
AcDbEntity
  8
CUT
  6
CONTINUOUS
 62
         131
100
AcDbCircle
 10
263.762260834605
 20
186.380540074131
 30
0.0
 40
2.125
  0
ARC
  5
30
100
AcDbEntity
  8
CUT
  6
CONTINUOUS
 62
         131
 48
12.0
100
AcDbCircle
 10
263.762260834605
 20
186.380540074131
 30
0.0
 40
2.875
100
AcDbArc
 50
189.972354713515
 51
350.027645286485
  0
ARC
  5
31
100
AcDbEntity
  8
CUT
  6
CONTINUOUS
 62
         131
 48
12.0
100
AcDbCircle
 10
255.502260834605
 20
186.820540074131
 30
0.0
 40
0.461
100
AcDbArc
 50
138.894576583487
 51
293.93177365348
  0
ARC
  5
32
100
AcDbEntity
  8
CUT
  6
CONTINUOUS
 62
         131
 48
12.0
100
AcDbCircle
 10
256.022260834605
 20
189.280540074131
 30
0.0
 40
0.461
100
AcDbArc
 50
109.561576125925
 51
197.234218329977
  0
ARC
  5
33
100
AcDbEntity
  8
CUT
  6
CONTINUOUS
 62
         131
 48
12.0
100
AcDbCircle
 10
256.882260834605
 20
190.260540074131
 30
0.0
 40
0.461
100
AcDbArc
 50
107.249378843972
 51
167.901217872405
  0
ARC
  5
34
100
AcDbEntity
  8
CUT
  6
CONTINUOUS
 62
         131
 48
12.0
100
AcDbCircle
 10
261.212260834605
 20
194.810540074131
 30
0.0
 40
0.461
100
AcDbArc
 50
60.830179126757
 51
165.589020590458
  0
ARC
  5
35
100
AcDbEntity
  8
CUT
  6
CONTINUOUS
 62
         131
 48
12.0
100
AcDbCircle
 10
266.312260834605
 20
194.810540074131
 30
0.0
 40
0.461
100
AcDbArc
 50
15.346390314999
 51
119.169820873243
  0
ARC
  5
36
100
AcDbEntity
  8
CUT
  6
CONTINUOUS
 62
         131
 48
12.0
100
AcDbCircle
 10
271.512260834605
 20
187.690540074131
 30
0.0
 40
0.461
100
AcDbArc
 50
274.983147763136
 51
407.604769696165
  0
ARC
  5
37
100
AcDbEntity
  8
CUT
  6
CONTINUOUS
 62
         131
 48
12.0
100
AcDbCircle
 10
269.949760834605
 20
186.630540074131
 30
0.0
 40
0.461
100
AcDbArc
 50
240.830179126757
 51
333.322789509624
  0
ARC
  5
38
100
AcDbEntity
  8
CUT
  6
CONTINUOUS
 62
         131
 48
12.0
100
AcDbCircle
 10
257.574760834605
 20
186.630540074131
 30
0.0
 40
0.461
100
AcDbArc
 50
235.592131906996
 51
299.169820873243
  0
LINE
  5
39
100
AcDbEntity
  8
CUT
  6
CONTINUOUS
 62
         131
 48
12.0
100
AcDbLine
 10
256.920409205907
 20
190.770328264357
 30
0.0
 11
260.704987140862
 21
194.747194223721
 31
0.0
  0
LINE
  5
3A
100
AcDbEntity
  8
CUT
  6
CONTINUOUS
 62
         131
 48
12.0
100
AcDbLine
 10
261.607851487166
 20
195.134341452655
 30
0.0
 11
265.916670182044
 21
195.134341452655
 31
0.0
  0
LINE
  5
3B
100
AcDbEntity
  8
CUT
  6
CONTINUOUS
 62
         131
 48
12.0
100
AcDbLine
 10
266.820501064343
 20
194.75548404809
 30
0.0
 11
268.86349685705
 21
192.677692706602
 31
0.0
  0
LINE
  5
3C
100
AcDbEntity
  8
CUT
  6
CONTINUOUS
 62
         131
 48
12.0
100
AcDbLine
 10
271.414542542613
 20
189.007644815745
 30
0.0
 11
271.69434904598
 21
188.168225305644
 31
0.0
  0
LINE
  5
3D
100
AcDbEntity
  8
CUT
  6
CONTINUOUS
 62
         131
 48
12.0
100
AcDbLine
 10
271.366676559262
 20
187.200494651847
 30
0.0
 11
270.458912068004
 21
186.584667220977
 31
0.0
  0
LINE
  5
3E
100
AcDbEntity
  8
CUT
  6
CONTINUOUS
 62
         131
 48
12.0
100
AcDbLine
 10
257.151261087717
 20
186.344205896092
 30
0.0
 11
255.866638415396
 21
186.461975887764
 31
0.0
  0
LINE
  5
3F
100
AcDbEntity
  8
CUT
  6
CONTINUOUS
 62
         131
 48
12.0
100
AcDbLine
 10
255.267272789135
 20
187.27454438646
 30
0.0
 11
255.623646864163
 21
188.960467895246
 31
0.0
  0
LINE
  5
40
100
AcDbEntity
  8
CUT
  6
CONTINUOUS
 62
         131
 48
12.0
100
AcDbLine
 10
256.039810995519
 20
189.791452286726
 30
0.0
 11
256.37795580518
 21
190.176780093085
 31
0.0
  0
LINE
  5
41
100
AcDbEntity
  8
CUT
  6
CONTINUOUS
 62
         131
 48
12.0
100
AcDbLine
 10
260.743434621813
 20
186.139641412873
 30
0.0
 11
257.97683528592
 21
186.302389235079
 31
0.0
  0
LINE
  5
42
100
AcDbEntity
  8
CUT
  6
CONTINUOUS
 62
         131
 48
12.0
100
AcDbLine
 10
266.781016163748
 20
186.139637243075
 30
0.0
 11
269.54768638329
 21
186.302389235079
 31
0.0
  0
LINE
  5
43
100
AcDbEntity
  8
CUT
  6
CONTINUOUS
 62
         131
 48
12.0
100
AcDbLine
 10
262.005878796857
 20
188.849159744656
 30
0.0
 11
260.451094684945
 21
190.518049668531
 31
0.0
  0
LINE
  5
44
100
AcDbEntity
  8
CUT
  6
CONTINUOUS
 62
         131
 48
12.0
100
AcDbLine
 10
261.29364116408
 20
188.136922111878
 30
0.0
 11
259.624751240204
 21
189.691706223791
 31
0.0
  0
LINE
  5
45
100
AcDbEntity
  8
CUT
  6
CONTINUOUS
 62
         131
 48
12.0
100
AcDbLine
 10
260.841964079677
 20
187.128178889227
 30
0.0
 11
258.545364181813
 21
187.211804377928
 31
0.0
  0
LINE
  5
46
100
AcDbEntity
  8
CUT
  6
CONTINUOUS
 62
         131
 48
12.0
100
AcDbLine
 10
266.23088050513
 20
188.136922111878
 30
0.0
 11
266.273907345201
 21
188.17700710872
 31
0.0
  0
LINE
  5
47
100
AcDbEntity
  8
CUT
  6
CONTINUOUS
 62
         131
 48
12.0
100
AcDbLine
 10
264.265888894558
 20
189.368067432575
 30
0.0
 11
264.34657388797
 21
191.647549203616
 31
0.0
  0
LINE
  5
48
100
AcDbEntity
  8
CUT
  6
CONTINUOUS
 62
         131
 48
12.0
100
AcDbLine
 10
263.258632774652
 20
189.368067432575
 30
0.0
 11
263.17794778124
 21
191.647549203616
 31
0.0
  0
ARC
  5
49
100
AcDbEntity
  8
CUT
  6
CONTINUOUS
 62
         131
 48
12.0
100
AcDbCircle
 10
263.762260834605
 20
186.380540074131
 30
0.0
 40
2.875
100
AcDbArc
 50
149.960896689072
 51
160.050561335371
  0
ARC
  5
4A
100
AcDbEntity
  8
CUT
  6
CONTINUOUS
 62
         131
 48
12.0
100
AcDbCircle
 10
263.762260834605
 20
186.380540074131
 30
0.0
 40
2.875
100
AcDbArc
 50
104.960896689072
 51
120.039103310929
  0
ARC
  5
4B
100
AcDbEntity
  8
CUT
  6
CONTINUOUS
 62
         131
 48
12.0
100
AcDbCircle
 10
263.762260834605
 20
186.380540074131
 30
0.0
 40
2.875
100
AcDbArc
 50
59.960896689072
 51
75.039103310928
  0
ARC
  5
4C
100
AcDbEntity
  8
CUT
  6
CONTINUOUS
 62
         131
 48
12.0
100
AcDbCircle
 10
263.762260834605
 20
186.380540074131
 30
0.0
 40
2.875
100
AcDbArc
 50
19.949438664629
 51
30.039103310928
  0
ARC
  5
4D
100
AcDbEntity
  8
CUT
  6
CONTINUOUS
 62
         131
 48
12.0
100
AcDbCircle
 10
263.762260834605
 20
186.380540074131
 30
0.0
 40
5.71832489232
100
AcDbArc
 50
65.67653262289
 51
78.973994659205
  0
ARC
  5
4E
100
AcDbEntity
  8
CUT
  6
CONTINUOUS
 62
         131
 48
12.0
100
AcDbCircle
 10
263.762260834605
 20
186.380540074131
 30
0.0
 40
5.71832489232
100
AcDbArc
 50
101.026005340793
 51
123.973994659205
  0
ARC
  5
4F
100
AcDbEntity
  8
CUT
  6
CONTINUOUS
 62
         131
 48
12.0
100
AcDbCircle
 10
263.762260834605
 20
186.380540074131
 30
0.0
 40
5.71832489232
100
AcDbArc
 50
146.026005340794
 51
166.468276269326
  0
LINE
  5
50
100
AcDbEntity
  8
CUT
  6
CONTINUOUS
 62
         131
 48
12.0
100
AcDbLine
 10
259.020103791041
 20
189.576034738233
 30
0.0
 11
259.06760683048
 21
189.640278972301
 31
0.0
  0
ARC
  5
51
100
AcDbEntity
  8
CUT
  6
CONTINUOUS
 62
         131
 48
12.0
100
AcDbCircle
 10
259.369132113565
 20
189.417327175581
 30
0.0
 40
0.375
100
AcDbArc
 50
47.027206549331
 51
143.520286950916
  0
LINE
  5
52
100
AcDbEntity
  8
CUT
  6
CONTINUOUS
 62
         131
 48
12.0
100
AcDbLine
 10
258.202673687788
 20
187.718534966154
 30
0.0
 11
258.190932235617
 21
187.658276464287
 31
0.0
  0
ARC
  5
53
100
AcDbEntity
  8
CUT
  6
CONTINUOUS
 62
         131
 48
12.0
100
AcDbCircle
 10
258.559009914933
 20
187.586556020976
 30
0.0
 40
0.375
100
AcDbArc
 50
168.973994659202
 51
267.914625165562
  0
LINE
  5
54
100
AcDbEntity
  8
CUT
  6
CONTINUOUS
 62
         131
 48
12.0
100
AcDbLine
 10
260.502521936435
 20
191.075194078255
 30
0.0
 11
260.566766170503
 21
191.122697117695
 31
0.0
  0
LINE
  5
55
100
AcDbEntity
  8
CUT
  6
CONTINUOUS
 62
         131
 48
12.0
100
AcDbLine
 10
262.668605377881
 20
191.993307423319
 30
0.0
 11
262.747622632758
 21
192.005145235566
 31
0.0
  0
LINE
  5
56
100
AcDbEntity
  8
CUT
  6
CONTINUOUS
 62
         131
 48
12.0
100
AcDbLine
 10
264.776899036452
 20
192.005145235566
 30
0.0
 11
264.855916291329
 21
191.993307423318
 31
0.0
  0
ARC
  5
57
100
AcDbEntity
  8
CUT
  6
CONTINUOUS
 62
         131
 48
12.0
100
AcDbCircle
 10
260.725473733154
 20
190.77366879517
 30
0.0
 40
0.375
100
AcDbArc
 50
126.479713049081
 51
222.972793450669
  0
ARC
  5
58
100
AcDbEntity
  8
CUT
  6
CONTINUOUS
 62
         131
 48
12.0
100
AcDbCircle
 10
262.803182477788
 20
191.634283935859
 30
0.0
 40
0.375
100
AcDbArc
 50
2.027206549332
 51
98.520286950915
  0
ARC
  5
59
100
AcDbEntity
  8
CUT
  6
CONTINUOUS
 62
         131
 48
12.0
100
AcDbCircle
 10
264.721339191422
 20
191.634283935859
 30
0.0
 40
0.375
100
AcDbArc
 50
81.479713049085
 51
177.972793450668
  0
LINE
  5
5A
100
AcDbEntity
  8
CUT
  6
CONTINUOUS
 62
         131
 48
12.0
100
AcDbLine
 10
261.059777870238
 20
187.361463530525
 30
0.0
 11
261.027650616038
 21
187.25930493186
 31
0.0
  0
LINE
  5
5B
100
AcDbEntity
  8
CUT
  6
CONTINUOUS
 62
         131
 48
12.0
100
AcDbLine
 10
261.273419445696
 20
187.819738997439
 30
0.0
 11
261.323912949098
 21
187.898903339498
 31
0.0
  0
LINE
  5
5C
100
AcDbEntity
  8
CUT
  6
CONTINUOUS
 62
         131
 48
12.0
100
AcDbLine
 10
262.243897569238
 20
188.818887959638
 30
0.0
 11
262.323061911297
 21
188.86938146304
 31
0.0
  0
LINE
  5
5D
100
AcDbEntity
  8
CUT
  6
CONTINUOUS
 62
         131
 48
12.0
100
AcDbLine
 10
263.020051529357
 20
189.158084015674
 30
0.0
 11
263.111733471116
 21
189.17835736011
 31
0.0
  0
LINE
  5
5E
100
AcDbEntity
  8
CUT
  6
CONTINUOUS
 62
         131
 48
12.0
100
AcDbLine
 10
264.412788198094
 20
189.17835736011
 30
0.0
 11
264.504470139853
 21
189.158084015674
 31
0.0
  0
LINE
  5
5F
100
AcDbEntity
  8
CUT
  6
CONTINUOUS
 62
         131
 48
12.0
100
AcDbLine
 10
265.201459757913
 20
188.86938146304
 30
0.0
 11
265.280624099972
 21
188.818887959638
 31
0.0
  0
LINE
  5
60
100
AcDbEntity
  8
CUT
  6
CONTINUOUS
 62
         131
 48
12.0
100
AcDbLine
 10
266.200608720112
 20
187.898903339498
 30
0.0
 11
266.251102223514
 21
187.819738997439
 31
0.0
  0
LINE
  5
61
100
AcDbEntity
  8
CUT
  6
CONTINUOUS
 62
         131
 48
12.0
100
AcDbLine
 10
266.464743798972
 20
187.361463530525
 30
0.0
 11
266.496871053172
 21
187.25930493186
 31
0.0
  0
ARC
  5
62
100
AcDbEntity
  8
CUT
  6
CONTINUOUS
 62
         131
 48
12.0
100
AcDbCircle
 10
260.848786946237
 20
187.315554710751
 30
0.0
 40
0.1875
100
AcDbArc
 50
267.914625165562
 51
342.542467704355
  0
ARC
  5
63
100
AcDbEntity
  8
CUT
  6
CONTINUOUS
 62
         131
 48
12.0
100
AcDbCircle
 10
261.16583160076
 20
187.999732587774
 30
0.0
 40
0.1875
100
AcDbArc
 50
327.468990320092
 51
407.027206549328
  0
ARC
  5
64
100
AcDbEntity
  8
CUT
  6
CONTINUOUS
 62
         131
 48
12.0
100
AcDbCircle
 10
262.143068320962
 20
188.976969307975
 30
0.0
 40
0.1875
100
AcDbArc
 50
222.972793450666
 51
302.531009679922
  0
ARC
  5
65
100
AcDbEntity
  8
CUT
  6
CONTINUOUS
 62
         131
 48
12.0
100
AcDbCircle
 10
263.071250122926
 20
189.361434798697
 30
0.0
 40
0.1875
100
AcDbArc
 50
282.468990320102
 51
362.027206549328
  0
ARC
  5
66
100
AcDbEntity
  8
CUT
  6
CONTINUOUS
 62
         131
 48
12.0
100
AcDbCircle
 10
264.453271546284
 20
189.361434798697
 30
0.0
 40
0.1875
100
AcDbArc
 50
177.972793450663
 51
257.531009679898
  0
ARC
  5
67
100
AcDbEntity
  8
CUT
  6
CONTINUOUS
 62
         131
 48
12.0
100
AcDbCircle
 10
265.381453348248
 20
188.976969307975
 30
0.0
 40
0.1875
100
AcDbArc
 50
237.468990320092
 51
317.027206549328
  0
ARC
  5
68
100
AcDbEntity
  8
CUT
  6
CONTINUOUS
 62
         131
 48
12.0
100
AcDbCircle
 10
266.35869006845
 20
187.999732587774
 30
0.0
 40
0.1875
100
AcDbArc
 50
132.972793450672
 51
212.531009679908
  0
ARC
  5
69
100
AcDbEntity
  8
CUT
  6
CONTINUOUS
 62
         131
 48
12.0
100
AcDbCircle
 10
266.675734722973
 20
187.315554710751
 30
0.0
 40
0.1875
100
AcDbArc
 50
197.457532295654
 51
272.085374834438
  0
LINE
  5
6A
100
AcDbEntity
  8
CUT
  6
CONTINUOUS
 62
         131
 48
12.0
100
AcDbLine
 10
266.593823678146
 20
185.882667738004
 30
0.0
 11
266.606104860123
 21
185.976734478955
 31
0.0
  0
ARC
  5
6B
100
AcDbEntity
  8
CUT
  6
CONTINUOUS
 62
         131
 48
12.0
100
AcDbCircle
 10
266.792026993569
 20
185.952460824618
 30
0.0
 40
0.1875
100
AcDbArc
 50
93.366598627048
 51
172.561640574159
  0
LINE
  5
6C
100
AcDbEntity
  8
CUT
  6
CONTINUOUS
 62
         131
 48
12.0
100
AcDbLine
 10
260.930697991064
 20
185.882667738004
 30
0.0
 11
260.918328044086
 21
185.97687521877
 31
0.0
  0
ARC
  5
6D
100
AcDbEntity
  8
CUT
  6
CONTINUOUS
 62
         131
 48
12.0
100
AcDbCircle
 10
260.732423791991
 20
185.952464994415
 30
0.0
 40
0.1875
100
AcDbArc
 50
7.480448344541
 51
86.633401372952
  0
LINE
  5
6E
100
AcDbEntity
  8
CUT
  6
CONTINUOUS
 62
         131
 48
12.0
100
AcDbLine
 10
257.799452143093
 20
186.228004590117
 30
0.0
 11
257.843961007716
 21
186.26188108249
 31
0.0
  0
ARC
  5
6F
100
AcDbEntity
  8
CUT
  6
CONTINUOUS
 62
         131
 48
12.0
100
AcDbCircle
 10
257.965090400777
 20
186.102734388724
 30
0.0
 40
0.2
100
AcDbArc
 50
86.633401372948
 51
127.275411391896
  0
LINE
  5
70
100
AcDbEntity
  8
CUT
  6
CONTINUOUS
 62
         131
 48
12.0
100
AcDbLine
 10
257.314258813498
 20
186.250198521051
 30
0.0
 11
257.268154987079
 21
186.292464821642
 31
0.0
  0
ARC
  5
71
100
AcDbEntity
  8
CUT
  6
CONTINUOUS
 62
         131
 48
12.0
100
AcDbCircle
 10
257.133002312425
 20
186.145041097182
 30
0.0
 40
0.2
100
AcDbArc
 50
47.486541388365
 51
84.761952780234
  0
LINE
  5
72
100
AcDbEntity
  8
CUT
  6
CONTINUOUS
 62
         131
 48
12.0
100
AcDbLine
 10
255.154896797954
 20
187.123622944055
 30
0.0
 11
255.20225167123
 21
187.164482691399
 31
0.0
  0
LINE
  5
73
100
AcDbEntity
  8
CUT
  6
CONTINUOUS
 62
         131
 48
12.0
100
AcDbLine
 10
255.689264806215
 20
186.399172639933
 30
0.0
 11
255.742285202649
 21
186.432351557006
 31
0.0
  0
ARC
  5
74
100
AcDbEntity
  8
CUT
  6
CONTINUOUS
 62
         131
 48
12.0
100
AcDbCircle
 10
255.071596656192
 20
187.315906821066
 30
0.0
 40
0.2
100
AcDbArc
 50
310.788986064882
 51
348.064397456731
  0
ARC
  5
75
100
AcDbEntity
  8
CUT
  6
CONTINUOUS
 62
         131
 48
12.0
100
AcDbCircle
 10
255.848379640104
 20
186.262811088854
 30
0.0
 40
0.2
100
AcDbArc
 50
84.761952780234
 51
122.037364172102
  0
LINE
  5
76
100
AcDbEntity
  8
CUT
  6
CONTINUOUS
 62
         131
 48
12.0
100
AcDbLine
 10
269.680560661494
 20
186.26188108249
 30
0.0
 11
269.725069526117
 21
186.228004590117
 31
0.0
  0
LINE
  5
77
100
AcDbEntity
  8
CUT
  6
CONTINUOUS
 62
         131
 48
12.0
100
AcDbLine
 10
270.381607667096
 20
186.482856847765
 30
0.0
 11
270.361687400821
 21
186.423567843999
 31
0.0
  0
ARC
  5
78
100
AcDbEntity
  8
CUT
  6
CONTINUOUS
 62
         131
 48
12.0
100
AcDbCircle
 10
269.559431268433
 20
186.102734388724
 30
0.0
 40
0.2
100
AcDbArc
 50
52.724588608104
 51
93.366598627052
  0
ARC
  5
79
100
AcDbEntity
  8
CUT
  6
CONTINUOUS
 62
         131
 48
12.0
100
AcDbCircle
 10
270.571192923543
 20
186.419158884392
 30
0.0
 40
0.2
100
AcDbArc
 50
124.152968636383
 51
161.428380028252
  0
LINE
  5
7A
100
AcDbEntity
  8
CUT
  6
CONTINUOUS
 62
         131
 48
12.0
100
AcDbLine
 10
271.489851401925
 20
187.234689397473
 30
0.0
 11
271.55230455369
 21
187.231282520505
 31
0.0
  0
LINE
  5
7B
100
AcDbEntity
  8
CUT
  6
CONTINUOUS
 62
         131
 48
12.0
100
AcDbLine
 10
271.823085894635
 20
188.030993862562
 30
0.0
 11
271.771410372641
 21
188.066230823309
 31
0.0
  0
ARC
  5
7C
100
AcDbEntity
  8
CUT
  6
CONTINUOUS
 62
         131
 48
12.0
100
AcDbCircle
 10
271.478957414802
 20
187.034986315262
 30
0.0
 40
0.2
100
AcDbArc
 50
86.877557244501
 51
124.152968636383
  0
ARC
  5
7D
100
AcDbEntity
  8
CUT
  6
CONTINUOUS
 62
         131
 48
12.0
100
AcDbCircle
 10
271.88408570559
 20
188.231470858847
 30
0.0
 40
0.2
100
AcDbArc
 50
198.434948822919
 51
235.710360214807
  0
LINE
  5
7E
100
AcDbEntity
  8
CUT
  6
CONTINUOUS
 62
         131
 48
12.0
100
AcDbLine
 10
271.414994914541
 20
189.135477197609
 30
0.0
 11
271.435193155688
 21
189.194672079403
 31
0.0
  0
ARC
  5
7F
100
AcDbEntity
  8
CUT
  6
CONTINUOUS
 62
         131
 48
12.0
100
AcDbCircle
 10
271.604279202223
 20
189.070890368948
 30
0.0
 40
0.2
100
AcDbArc
 50
161.159537431031
 51
198.434948822919
  0
LINE
  5
80
100
AcDbEntity
  8
CUT
  6
CONTINUOUS
 62
         131
 48
12.0
100
AcDbLine
 10
266.764706445377
 20
194.870498321064
 30
0.0
 11
266.756823166844
 21
194.932545536116
 31
0.0
  0
LINE
  5
81
100
AcDbEntity
  8
CUT
  6
CONTINUOUS
 62
         131
 48
12.0
100
AcDbLine
 10
266.087569526117
 20
195.213075558144
 30
0.0
 11
266.037799575105
 21
195.175194758888
 31
0.0
  0
ARC
  5
82
100
AcDbEntity
  8
CUT
  6
CONTINUOUS
 62
         131
 48
12.0
100
AcDbCircle
 10
265.916670182044
 20
195.334341452655
 30
0.0
 40
0.2
100
AcDbArc
 50
270.0
 51
307.275411391896
  0
ARC
  5
83
100
AcDbEntity
  8
CUT
  6
CONTINUOUS
 62
         131
 48
12.0
100
AcDbCircle
 10
266.963111485606
 20
194.895706256556
 30
0.0
 40
0.2
100
AcDbArc
 50
187.24079979637
 51
224.516211188238
  0
LINE
  5
84
100
AcDbEntity
  8
CUT
  6
CONTINUOUS
 62
         131
 48
12.0
100
AcDbLine
 10
260.758896684667
 20
194.863104031676
 30
0.0
 11
260.765765974782
 21
194.925271674622
 31
0.0
  0
LINE
  5
85
100
AcDbEntity
  8
CUT
  6
CONTINUOUS
 62
         131
 48
12.0
100
AcDbLine
 10
261.436952143093
 20
195.213075558144
 30
0.0
 11
261.486722094105
 21
195.175194758888
 31
0.0
  0
ARC
  5
86
100
AcDbEntity
  8
CUT
  6
CONTINUOUS
 62
         131
 48
12.0
100
AcDbCircle
 10
261.607851487166
 20
195.334341452655
 30
0.0
 40
0.2
100
AcDbArc
 50
232.724588608104
 51
270.0
  0
ARC
  5
87
100
AcDbEntity
  8
CUT
  6
CONTINUOUS
 62
         131
 48
12.0
100
AcDbCircle
 10
260.560106558643
 20
194.885069590976
 30
0.0
 40
0.2
100
AcDbArc
 50
316.41919971722
 51
353.694611109079
  0
LINE
  5
88
100
AcDbEntity
  8
CUT
  6
CONTINUOUS
 62
         131
 48
12.0
100
AcDbLine
 10
256.745559941549
 20
190.700805750555
 30
0.0
 11
256.807311154175
 21
190.710745102407
 31
0.0
  0
LINE
  5
89
100
AcDbEntity
  8
CUT
  6
CONTINUOUS
 62
         131
 48
12.0
100
AcDbLine
 10
256.427145133826
 20
190.294770484392
 30
0.0
 11
256.431500708517
 21
190.357164650346
 31
0.0
  0
ARC
  5
8A
100
AcDbEntity
  8
CUT
  6
CONTINUOUS
 62
         131
 48
12.0
100
AcDbCircle
 10
256.775528623687
 20
190.908203631612
 30
0.0
 40
0.2
100
AcDbArc
 50
279.143788325326
 51
316.41919971722
  0
ARC
  5
8B
100
AcDbEntity
  8
CUT
  6
CONTINUOUS
 62
         131
 48
12.0
100
AcDbCircle
 10
256.227630667366
 20
190.308698071166
 30
0.0
 40
0.2
100
AcDbArc
 50
318.73139699916
 51
356.006808391025
  0
LINE
  5
8C
100
AcDbEntity
  8
CUT
  6
CONTINUOUS
 62
         131
 48
12.0
100
AcDbLine
 10
255.867908939599
 20
189.714932169487
 30
0.0
 11
255.929208877976
 21
189.727354750982
 31
0.0
  0
ARC
  5
8D
100
AcDbEntity
  8
CUT
  6
CONTINUOUS
 62
         131
 48
12.0
100
AcDbCircle
 10
255.889485857705
 20
189.923370264808
 30
0.0
 40
0.2
100
AcDbArc
 50
281.455985607287
 51
318.73139699916
  0
LINE
  5
8E
100
AcDbEntity
  8
CUT
  6
CONTINUOUS
 62
         131
 48
12.0
100
AcDbLine
 10
255.581959002415
 20
189.143955680547
 30
0.0
 11
255.608727812251
 21
189.087427512382
 31
0.0
  0
ARC
  5
8F
100
AcDbEntity
  8
CUT
  6
CONTINUOUS
 62
         131
 48
12.0
100
AcDbCircle
 10
255.42797073122
 20
189.001830329851
 30
0.0
 40
0.2
100
AcDbArc
 50
348.064397456731
 51
385.339808848623
  0
ARC
  5
90
100
AcDbEntity
  8
CUT
  6
CONTINUOUS
 62
         131
100
AcDbCircle
 10
268.542655005184
 20
189.89018241894
 30
0.0
 40
2.719978233432
100
AcDbArc
 50
51.106612041779
 51
70.5871145158
  0
ARC
  5
91
100
AcDbEntity
  8
CUT
  6
CONTINUOUS
 62
         131
100
AcDbCircle
 10
270.564393180131
 20
192.396341746624
 30
0.0
 40
0.5
100
AcDbArc
 50
231.106612041772
 51
280.594323313828
  0
ARC
  5
92
100
AcDbEntity
  8
CUT
  6
CONTINUOUS
 62
         131
100
AcDbCircle
 10
270.731010834605
 20
191.505540074131
 30
0.0
 40
0.40625
100
AcDbArc
 50
332.272227845452
 51
460.594323313826
  0
ARC
  5
93
100
AcDbEntity
  8
CUT
  6
CONTINUOUS
 62
         131
100
AcDbCircle
 10
271.533194520921
 20
191.083888089778
 30
0.0
 40
0.5
100
AcDbArc
 50
152.272227845456
 51
201.759939117503
  0
ARC
  5
94
100
AcDbEntity
  8
CUT
  6
CONTINUOUS
 62
         131
100
AcDbCircle
 10
268.542655005184
 20
189.89018241894
 30
0.0
 40
2.719978233432
100
AcDbArc
 50
5.513762487199
 51
21.759939117499
  0
LINE
  5
95
100
AcDbEntity
  8
CUT
  6
CONTINUOUS
 62
         131
 48
12.0
100
AcDbLine
 10
269.097883281613
 20
192.543395764511
 30
0.0
 11
269.446703007068
 21
192.455524267629
 31
0.0
  0
ARC
  5
96
100
AcDbEntity
  8
CUT
  6
CONTINUOUS
 62
         131
 48
12.0
100
AcDbCircle
 10
269.220022910207
 20
193.028248227769
 30
0.0
 40
0.5
100
AcDbArc
 50
224.516211188243
 51
255.860755919684
  0
LINE
  5
97
100
AcDbEntity
  8
CUT
  6
CONTINUOUS
 62
         131
 48
12.0
100
AcDbLine
 10
271.414116923944
 20
189.441851320176
 30
0.0
 11
271.250048300346
 21
190.1515311049
 31
0.0
  0
ARC
  5
98
100
AcDbEntity
  8
CUT
  6
CONTINUOUS
 62
         131
 48
12.0
100
AcDbCircle
 10
270.982260834605
 20
189.280540074131
 30
0.0
 40
0.461
100
AcDbArc
 50
349.265127949673
 51
380.482173412924
  0
LINE
  5
99
100
AcDbEntity
  8
CUT
  6
CONTINUOUS
 62
         131
100
AcDbLine
 10
265.518642872353
 20
188.849159744656
 30
0.0
 11
265.831840908692
 21
189.185343426377
 31
0.0
  0
ARC
  5
9A
100
AcDbEntity
  8
CUT
  6
CONTINUOUS
 62
         131
100
AcDbCircle
 10
268.542655005184
 20
189.89018241894
 30
0.0
 40
2.715943147361
100
AcDbArc
 50
149.359936560031
 51
188.151133423507
  0
ARC
  5
9B
100
AcDbEntity
  8
CUT
  6
CONTINUOUS
 62
         131
100
AcDbCircle
 10
268.542655005184
 20
189.89018241894
 30
0.0
 40
2.715943147361
100
AcDbArc
 50
222.055422254362
 51
253.986909650931
  0
LINE
  5
9C
100
AcDbEntity
  8
CUT
  6
CONTINUOUS
 62
         131
100
AcDbLine
 10
266.117568061247
 20
191.591275861163
 30
0.0
 11
266.136628675813
 21
191.582153348694
 31
0.0
  0
LINE
  5
9D
100
AcDbEntity
  8
CUT
  6
CONTINUOUS
 62
         131
100
AcDbLine
 10
266.21749060978
 20
191.292010312579
 30
0.0
 11
266.205895883808
 21
191.274344254984
 31
0.0
  0
ARC
  5
9E
100
AcDbEntity
  8
CUT
  6
CONTINUOUS
 62
         131
100
AcDbCircle
 10
266.050287000325
 20
191.401750701613
 30
0.0
 40
0.2
100
AcDbArc
 50
326.721993515277
 51
424.423972987681
  0
LINE
  5
9F
100
AcDbEntity
  8
CUT
  6
CONTINUOUS
 62
         131
100
AcDbLine
 10
265.881970007799
 20
189.359112434562
 30
0.0
 11
265.854149628248
 21
189.505103183095
 31
0.0
  0
ARC
  5
A0
100
AcDbEntity
  8
CUT
  6
CONTINUOUS
 62
         131
100
AcDbCircle
 10
265.685505416314
 20
189.321673627251
 30
0.0
 40
0.2
100
AcDbArc
 50
317.027206549337
 51
370.789076468271
  0
LINE
  5
A1
100
AcDbEntity
  8
CUT
  6
CONTINUOUS
 62
         131
100
AcDbLine
 10
266.526074748693
 20
188.070910243364
 30
0.0
 11
266.448410253781
 21
188.16540175985
 31
0.0
  0
ARC
  5
A2
100
AcDbEntity
  8
CUT
  6
CONTINUOUS
 62
         131
 48
12.0
100
AcDbCircle
 10
266.355705465726
 20
188.089205813293
 30
0.0
 40
0.12
100
AcDbArc
 50
39.4174792096
 51
132.972793450667
  0
ARC
  5
A3
100
AcDbEntity
  8
CUT
  6
CONTINUOUS
 62
         131
100
AcDbCircle
 10
267.779287433056
 20
187.224724251845
 30
0.0
 40
0.056692877406
100
AcDbArc
 50
275.81304194616
 51
435.540741269656
  0
LINE
  5
A4
100
AcDbEntity
  8
CUT
  6
CONTINUOUS
 62
         131
100
AcDbLine
 10
266.682557589533
 20
187.128178889227
 30
0.0
 11
267.785029443822
 21
187.168322907349
 31
0.0
  0
ARC
  5
A5
100
AcDbEntity
  8
CUT
  6
CONTINUOUS
 62
         131
100
AcDbCircle
 10
268.542655005184
 20
189.89018241894
 30
0.0
 40
2.219978233432
100
AcDbArc
 50
39.212826255149
 51
363.785127525365
  0
ARC
  5
A6
100
AcDbEntity
  8
CUT
  6
CONTINUOUS
 62
         131
100
AcDbCircle
 10
270.422260834605
 20
190.630540074131
 30
0.0
 40
0.461
100
AcDbArc
 50
123.039884353797
 51
279.958069426719
  0
ARC
  5
A7
100
AcDbEntity
  8
CUT
  6
CONTINUOUS
 62
         131
100
AcDbCircle
 10
270.037543784145
 20
191.21479839281
 30
0.0
 40
0.238568096086
100
AcDbArc
 50
303.989548506557
 51
379.302618867734
  0
ARC
  5
A8
100
AcDbEntity
  8
CUT
  6
CONTINUOUS
 62
         131
100
AcDbCircle
 10
270.576408602222
 20
190.008721779313
 30
0.0
 40
0.183532130873
100
AcDbArc
 50
8.77928170912
 51
113.924458353556
  0
ENDSEC
  0
SECTION
  2
OBJECTS
  0
DICTIONARY
  5
19
100
AcDbDictionary
  3
ACAD_GROUP
350
1A
  3
ACAD_MLINESTYLE
350
1B
  0
DICTIONARY
  5
1A
102
{ACAD_REACTORS
330
19
102
}
100
AcDbDictionary
  0
DICTIONARY
  5
1B
102
{ACAD_REACTORS
330
19
102
}
100
AcDbDictionary
  3
STANDARD
350
1C
  0
MLINESTYLE
  5
1C
102
{ACAD_REACTORS
330
1B
102
}
100
AcDbMlineStyle
  2
STANDARD
 70
           0
  3

 62
           0
 51
90.0
 52
90.0
 71
           2
 49
0.5
 62
         256
  6
BYLAYER
 49
-0.5
 62
         256
  6
BYLAYER
  0
ENDSEC
  0
EOF
