  0
SECTION
  2
HEADER
  9
$ACADVER
  1
AC1014
  9
$ACADMAINTVER
 70
           0
  9
$DWGCODEPAGE
  3
ANSI_1252
  9
$INSBASE
 10
0.0
 20
0.0
 30
0.0
  9
$EXTMIN
 10
-24.125
 20
-13.702290123424
 30
0.0
  9
$EXTMAX
 10
7.5
 20
13.233371657606
 30
0.0
  9
$LIMMIN
 10
-24.125
 20
-13.702290123424
  9
$LIMMAX
 10
7.5
 20
13.233371657606
  9
$ORTHOMODE
 70
           0
  9
$REGENMODE
 70
           1
  9
$FILLMODE
 70
           1
  9
$QTEXTMODE
 70
           0
  9
$MIRRTEXT
 70
           1
  9
$DRAGMODE
 70
           2
  9
$LTSCALE
 40
1.0
  9
$OSMODE
 70
           0
  9
$ATTMODE
 70
           1
  9
$TEXTSIZE
 40
0.2
  9
$TRACEWID
 40
0.05
  9
$TEXTSTYLE
  7
STANDARD
  9
$CLAYER
  8
CUT
  9
$CELTYPE
  6
CONTINUOUS
  9
$CECOLOR
 62
         256
  9
$CELTSCALE
 40
1.0
  9
$DELOBJ
 70
           1
  9
$DISPSILH
 70
           0
  9
$DIMSCALE
 40
1.0
  9
$DIMASZ
 40
0.18
  9
$DIMEXO
 40
0.0625
  9
$DIMDLI
 40
0.38
  9
$DIMRND
 40
0.0
  9
$DIMDLE
 40
0.0
  9
$DIMEXE
 40
0.18
  9
$DIMTP
 40
0.0
  9
$DIMTM
 40
0.0
  9
$DIMTXT
 40
0.18
  9
$DIMCEN
 40
0.09
  9
$DIMTSZ
 40
0.0
  9
$DIMTOL
 70
           0
  9
$DIMLIM
 70
           0
  9
$DIMTIH
 70
           1
  9
$DIMTOH
 70
           1
  9
$DIMSE1
 70
           0
  9
$DIMSE2
 70
           0
  9
$DIMTAD
 70
           0
  9
$DIMZIN
 70
           0
  9
$DIMBLK
  1

  9
$DIMASO
 70
           1
  9
$DIMSHO
 70
           1
  9
$DIMPOST
  1

  9
$DIMAPOST
  1

  9
$DIMALT
 70
           0
  9
$DIMALTD
 70
           2
  9
$DIMALTF
 40
25.4
  9
$DIMLFAC
 40
1.0
  9
$DIMTOFL
 70
           0
  9
$DIMTVP
 40
0.0
  9
$DIMTIX
 70
           0
  9
$DIMSOXD
 70
           0
  9
$DIMSAH
 70
           0
  9
$DIMBLK1
  1

  9
$DIMBLK2
  1

  9
$DIMSTYLE
  2
STANDARD
  9
$DIMCLRD
 70
           0
  9
$DIMCLRE
 70
           0
  9
$DIMCLRT
 70
           0
  9
$DIMTFAC
 40
1.0
  9
$DIMGAP
 40
0.09
  9
$DIMJUST
 70
           0
  9
$DIMSD1
 70
           0
  9
$DIMSD2
 70
           0
  9
$DIMTOLJ
 70
           1
  9
$DIMTZIN
 70
           0
  9
$DIMALTZ
 70
           0
  9
$DIMALTTZ
 70
           0
  9
$DIMFIT
 70
           3
  9
$DIMUPT
 70
           0
  9
$DIMUNIT
 70
           3
  9
$DIMDEC
 70
           4
  9
$DIMTDEC
 70
           4
  9
$DIMALTU
 70
           2
  9
$DIMALTTD
 70
           2
  9
$DIMTXSTY
  7
STANDARD
  9
$DIMAUNIT
 70
           0
  9
$LUNITS
 70
           3
  9
$LUPREC
 70
           5
  9
$SKETCHINC
 40
0.1
  9
$FILLETRAD
 40
0.0
  9
$AUNITS
 70
           0
  9
$AUPREC
 70
           0
  9
$MENU
  1
acad
  9
$ELEVATION
 40
0.0
  9
$PELEVATION
 40
0.0
  9
$THICKNESS
 40
0.0
  9
$LIMCHECK
 70
           0
  9
$BLIPMODE
 70
           1
  9
$CHAMFERA
 40
0.0
  9
$CHAMFERB
 40
0.0
  9
$CHAMFERC
 40
0.0
  9
$CHAMFERD
 40
0.0
  9
$SKPOLY
 70
           0
  9
$TDCREATE
 40
0.000000000
  9
$TDUPDATE
 40
0.000000000
  9
$TDINDWG
 40
0.0000000000
  9
$TDUSRTIMER
 40
0.0000000000
  9
$USRTIMER
 70
           1
  9
$ANGBASE
 50
0.0
  9
$ANGDIR
 70
           0
  9
$PDMODE
 70
           0
  9
$PDSIZE
 40
0.0
  9
$PLINEWID
 40
0.0
  9
$COORDS
 70
           0
  9
$SPLFRAME
 70
           0
  9
$SPLINETYPE
 70
           6
  9
$SPLINESEGS
 70
           8
  9
$ATTDIA
 70
           0
  9
$ATTREQ
 70
           1
  9
$HANDLING
 70
           1
  9
$HANDSEED
  5
10C
  9
$SURFTAB1
 70
           6
  9
$SURFTAB2
 70
           6
  9
$SURFTYPE
 70
           6
  9
$SURFU
 70
           6
  9
$SURFV
 70
           6
  9
$UCSNAME
  2

  9
$UCSORG
 10
0.0
 20
0.0
 30
0.0
  9
$UCSXDIR
 10
1.0
 20
0.0
 30
0.0
  9
$UCSYDIR
 10
0.0
 20
1.0
 30
0.0
  9
$PUCSNAME
  2

  9
$PUCSORG
 10
0.0
 20
0.0
 30
0.0
  9
$PUCSXDIR
 10
1.0
 20
0.0
 30
0.0
  9
$PUCSYDIR
 10
0.0
 20
1.0
 30
0.0
  9
$USERI1
 70
           0
  9
$USERI2
 70
           0
  9
$USERI3
 70
           0
  9
$USERI4
 70
           0
  9
$USERI5
 70
           0
  9
$USERR1
 40
0.0
  9
$USERR2
 40
0.0
  9
$USERR3
 40
0.0
  9
$USERR4
 40
0.0
  9
$USERR5
 40
0.0
  9
$WORLDVIEW
 70
           1
  9
$SHADEDGE
 70
           3
  9
$SHADEDIF
 70
          70
  9
$TILEMODE
 70
           1
  9
$MAXACTVP
 70
          16
  9
$PINSBASE
 10
0.0
 20
0.0
 30
0.0
  9
$PLIMCHECK
 70
           0
  9
$PEXTMIN
 10
1.000000000000E+20
 20
1.000000000000E+20
 30
1.000000000000E+20
  9
$PEXTMAX
 10
-1.000000000000E+20
 20
-1.000000000000E+20
 30
-1.000000000000E+20
  9
$PLIMMIN
 10
0.0
 20
0.0
  9
$PLIMMAX
 10
12.0
 20
9.0
  9
$UNITMODE
 70
           0
  9
$VISRETAIN
 70
           1
  9
$PLINEGEN
 70
           1
  9
$PSLTSCALE
 70
           0
  9
$TREEDEPTH
 70
        3020
  9
$PICKSTYLE
 70
           1
  9
$CMLSTYLE
  2
STANDARD
  9
$CMLJUST
 70
           0
  9
$CMLSCALE
 40
1.0
  9
$PROXYGRAPHICS
 70
           0
  9
$MEASUREMENT
 70
           0
  0
ENDSEC
  0
SECTION
  2
CLASSES
  0
CLASS
  1
LWPOLYLINE
  2
AcDbPolyline
  3
"AutoCAD"
 90
        0
280
           0
281
           1
  0
CLASS
  1
IMAGE
  2
AcDbRasterImage
  3
ISM
 90
      127
280
           0
281
           1
  0
CLASS
  1
OLE2FRAME
  2
AcDbOle2Frame
  3
""
 90
        0
280
           0
281
           1
  0
CLASS
  1
HATCH
  2
AcDbHatch
  3
"ACAD_SEDONA"
 90
        0
280
           0
281
           1
  0
CLASS
  1
DICTIONARYVAR
  2
AcDbDictionaryVar
  3
"AutoCAD"
 90
        0
280
           0
281
           0
  0
CLASS
  1
RASTERVARIABLES
  2
AcDbRasterVariables
  3
ISM
 90
        0
280
           0
281
           0
  0
CLASS
  1
IMAGEDEF
  2
AcDbRasterImageDef
  3
ISM
 90
        0
280
           0
281
           0
  0
CLASS
  1
IMAGEDEF_REACTOR
  2
AcDbRasterImageDefReactor
  3
ISM
 90
        1
280
           0
281
           0
  0
CLASS
  1
IDBUFFER
  2
AcDbIdBuffer
  3
"Acad"
 90
        0
280
           0
281
           0
  0
CLASS
  1
SPATIAL_FILTER
  2
AcDbSpatialFilter
  3
"Acad"
 90
        0
280
           0
281
           0
  0
CLASS
  1
XRECORD
  2
AcDbXrecord
  3
"<Built In>"
 90
        0
280
           0
281
           0
  0
CLASS
  1
SORTENTSTABLE
  2
AcDbSortentsTable
  3
"AutoCAD"
 90
        0
280
           0
281
           0
  0
CLASS
  1
LAYER_INDEX
  2
AcDbLayerIndex
  3
"Acad"
 90
        0
280
           0
281
           0
  0
CLASS
  1
SPATIAL_INDEX
  2
AcDbSpatialIndex
  3
"Acad"
 90
        0
280
           0
281
           0
  0
CLASS
  1
OBJECT_PTR
  2
CAseDLPNTableRecord
  3
"ASE-LPNTableRecord"
 90
        1
280
           0
281
           0
  0
CLASS
  1
LAYOUT
  2
AcDbLayout
  3
"AutoCAD 2000"
 90
        0
280
           0
281
           0
  0
CLASS
  1
PLOTSETTINGS
  2
AcDbPlotSettings
  3
"AutoCAD 2000"
 90
        0
280
           0
281
           0
  0
CLASS
  1
ACDBDICTIONARYWDFLT
  2
AcDbDictionaryWithDefault
  3
"AutoCAD 2000"
 90
        0
280
           0
281
           0
  0
CLASS
  1
ACDBPLACEHOLDER
  2
AcDbPlaceHolder
  3
"AutoCAD 2000"
 90
        0
280
           0
281
           0
  0
ENDSEC
  0
SECTION
  2
TABLES
  0
TABLE
  2
VPORT
  5
7
100
AcDbSymbolTable
 70
           1
  0
VPORT
  5
15
100
AcDbSymbolTableRecord
100
AcDbViewportTableRecord
  2
*ACTIVE
 70
           0
 10
0.0
 20
0.0
 11
1.0
 21
1.0
 12
6.591288
 22
4.579184
 13
0.0
 23
0.0
 14
1.0
 24
1.0
 15
0.0
 25
0.0
 16
0.0
 26
0.0
 36
1.0
 17
0.0
 27
0.0
 37
0.0
 40
9.158369
 41
0.688564
 42
50.0
 43
0.0
 44
0.0
 50
0.0
 51
0.0
 71
           0
 72
         100
 73
           1
 74
           1
 75
           0
 76
           0
 77
           0
 78
           0
  0
ENDTAB
  0
TABLE
  2
LTYPE
  5
4
100
AcDbSymbolTable
 70
           3
  0
LTYPE
  5
11
100
AcDbSymbolTableRecord
100
AcDbLinetypeTableRecord
  2
BYBLOCK
 70
          64
  3

 72
          65
 73
           0
 40
0.0
  0
LTYPE
  5
12
100
AcDbSymbolTableRecord
100
AcDbLinetypeTableRecord
  2
BYLAYER
 70
          64
  3

 72
          65
 73
           0
 40
0.0
  0
LTYPE
  5
13
100
AcDbSymbolTableRecord
100
AcDbLinetypeTableRecord
  2
CONTINUOUS
 70
          64
  3
Solid line
 72
          65
 73
           0
 40
0.0
  0
ENDTAB
  0
TABLE
  2
LAYER
  5
2
100
AcDbSymbolTable
 70
           2
  0
LAYER
  5
14
100
AcDbSymbolTableRecord
100
AcDbLayerTableRecord
  2
0
 70
           0
 62
           7
  6
CONTINUOUS
  0
LAYER
  5
1D
100
AcDbSymbolTableRecord
100
AcDbLayerTableRecord
  2
CUT
 70
           0
 62
           7
  6
CONTINUOUS
  0
ENDTAB
  0
TABLE
  2
STYLE
  5
3
100
AcDbSymbolTable
 70
           1
  0
STYLE
  5
17
100
AcDbSymbolTableRecord
100
AcDbTextStyleTableRecord
  2
STANDARD
 70
           0
 40
0.0
 41
1.0
 50
0.0
 71
           0
 42
0.0
  3
txt
  4

  0
ENDTAB
  0
TABLE
  2
VIEW
  5
5
100
AcDbSymbolTable
 70
           0
  0
ENDTAB
  0
TABLE
  2
UCS
  5
6
100
AcDbSymbolTable
 70
           0
  0
ENDTAB
  0
TABLE
  2
APPID
  5
8
100
AcDbSymbolTable
 70
           1
  0
APPID
  5
16
100
AcDbSymbolTableRecord
100
AcDbRegAppTableRecord
  2
ACAD
 70
           0
  0
ENDTAB
  0
TABLE
  2
DIMSTYLE
  5
9
100
AcDbSymbolTable
 70
           1
  0
DIMSTYLE
105
18
100
AcDbSymbolTableRecord
100
AcDbDimStyleTableRecord
  2
STANDARD
 70
           0
  3

  4

  5

  6

  7

 40
1.0
 41
0.18
 42
0.0625
 43
0.38
 44
0.18
 45
0.0
 46
0.0
 47
0.0
 48
0.0
 71
           0
 72
           0
 73
           1
 74
           1
 75
           0
 76
           0
 77
           0
 78
           0
140
0.18
141
0.09
142
0.0
143
25.4
144
1.0
145
0.0
146
1.0
147
0.09
170
           0
171
           2
172
           0
173
           0
174
           0
175
           0
176
           0
177
           0
178
           0
270
           2
271
           4
272
           4
273
           2
274
           2
275
           0
280
           0
281
           0
282
           0
283
           1
284
           0
285
           0
286
           0
287
           3
288
           0
340
17
  0
ENDTAB
  0
TABLE
  2
BLOCK_RECORD
  5
1
100
AcDbSymbolTable
 70
           0
  0
BLOCK_RECORD
  5
A
100
AcDbSymbolTableRecord
100
AcDbBlockTableRecord
  2
*MODEL_SPACE
  0
BLOCK_RECORD
  5
B
100
AcDbSymbolTableRecord
100
AcDbBlockTableRecord
  2
*PAPER_SPACE
  0
ENDTAB
  0
ENDSEC
  0
SECTION
  2
BLOCKS
  0
BLOCK
  5
D
100
AcDbEntity
  8
0
100
AcDbBlockBegin
  2
*MODEL_SPACE
 70
           0
 10
0.0
 20
0.0
 30
0.0
  3
*MODEL_SPACE
  1

  0
ENDBLK
  5
E
100
AcDbEntity
  8
0
100
AcDbBlockEnd
  0
BLOCK
  5
F
100
AcDbEntity
 67
           1
  8
0
100
AcDbBlockBegin
  2
*PAPER_SPACE
 70
           0
 10
0.0
 20
0.0
 30
0.0
  3
*PAPER_SPACE
  1

  0
ENDBLK
  5
10
100
AcDbEntity
 67
           1
  8
0
100
AcDbBlockEnd
  0
ENDSEC
  0
SECTION
  2
ENTITIES
  0
CIRCLE
  5
1E
100
AcDbEntity
  8
CUT
  6
CONTINUOUS
 62
           7
100
AcDbCircle
 10
0.0
 20
-7.1827725353
 30
0.0
 40
0.21875
  0
CIRCLE
  5
1F
100
AcDbEntity
  8
CUT
  6
CONTINUOUS
 62
           7
100
AcDbCircle
 10
-3.244423545316
 20
-7.051955500272
 30
0.0
 40
0.21875
  0
CIRCLE
  5
20
100
AcDbEntity
  8
CUT
  6
CONTINUOUS
 62
           7
100
AcDbCircle
 10
3.254699396091
 20
-7.057568260634
 30
0.0
 40
0.21875
  0
CIRCLE
  5
21
100
AcDbEntity
  8
CUT
  6
CONTINUOUS
 62
           7
100
AcDbCircle
 10
4.67028912571
 20
-5.384176407244
 30
0.0
 40
0.21875
  0
CIRCLE
  5
22
100
AcDbEntity
  8
CUT
  6
CONTINUOUS
 62
           7
100
AcDbCircle
 10
-4.67028912571
 20
-5.384176407244
 30
0.0
 40
0.21875
  0
CIRCLE
  5
23
100
AcDbEntity
  8
CUT
  6
CONTINUOUS
 62
           7
100
AcDbCircle
 10
-6.75
 20
-4.3077725353
 30
0.0
 40
0.21875
  0
CIRCLE
  5
24
100
AcDbEntity
  8
CUT
  6
CONTINUOUS
 62
           7
100
AcDbCircle
 10
3.15428175044
 20
-9.234620191316
 30
0.0
 40
0.21875
  0
CIRCLE
  5
25
100
AcDbEntity
  8
CUT
  6
CONTINUOUS
 62
           7
100
AcDbCircle
 10
-3.344841190968
 20
-9.240232951678
 30
0.0
 40
0.21875
  0
CIRCLE
  5
26
100
AcDbEntity
  8
CUT
  6
CONTINUOUS
 62
           7
100
AcDbCircle
 10
-0.100417645651
 20
-9.10941591665
 30
0.0
 40
0.21875
  0
CIRCLE
  5
27
100
AcDbEntity
  8
CUT
  6
CONTINUOUS
 62
           7
100
AcDbCircle
 10
-0.100417645685
 20
-13.23354012969
 30
0.0
 40
0.21875
  0
CIRCLE
  5
28
100
AcDbEntity
  8
CUT
  6
CONTINUOUS
 62
           7
100
AcDbCircle
 10
-3.344841190999
 20
-13.102723094609
 30
0.0
 40
0.21875
  0
CIRCLE
  5
29
100
AcDbEntity
  8
CUT
  6
CONTINUOUS
 62
           7
100
AcDbCircle
 10
3.154281750408
 20
-13.108335855077
 30
0.0
 40
0.21875
  0
LINE
  5
2A
100
AcDbEntity
  8
CUT
  6
CONTINUOUS
 62
           7
100
AcDbLine
 10
-3.344840723318
 20
-8.771483003122
 30
0.0
 11
-0.10041781072
 21
-8.640666066629
 31
0.0
  0
LINE
  5
2B
100
AcDbEntity
  8
CUT
  6
CONTINUOUS
 62
           7
100
AcDbLine
 10
-2.75
 20
-6.557772636414
 30
0.0
 11
-2.75
 21
-6.557772636414
 31
0.0
  0
LINE
  5
2C
100
AcDbEntity
  8
CUT
  6
CONTINUOUS
 62
           7
100
AcDbLine
 10
-2.75
 20
-6.557772636414
 30
0.0
 11
2.5
 21
-6.557772636414
 31
0.0
  0
LINE
  5
2D
100
AcDbEntity
  8
CUT
  6
CONTINUOUS
 62
           7
100
AcDbLine
 10
2.5
 20
-6.557772636414
 30
0.0
 11
2.5
 21
-6.432772636414
 31
0.0
  0
LINE
  5
2E
100
AcDbEntity
  8
CUT
  6
CONTINUOUS
 62
           7
100
AcDbLine
 10
2.5
 20
-6.432772636414
 30
0.0
 11
2.5
 21
-6.432772636414
 31
0.0
  0
LINE
  5
2F
100
AcDbEntity
  8
CUT
  6
CONTINUOUS
 62
           7
100
AcDbLine
 10
2.5
 20
-6.432772636414
 30
0.0
 11
2.77020740509
 21
-6.432772636414
 31
0.0
  0
LINE
  5
30
100
AcDbEntity
  8
CUT
  6
CONTINUOUS
 62
           7
100
AcDbLine
 10
2.77020740509
 20
-6.432772636414
 30
0.0
 11
2.78474354744
 21
-6.432349681854
 31
0.0
  0
LINE
  5
31
100
AcDbEntity
  8
CUT
  6
CONTINUOUS
 62
           7
100
AcDbLine
 10
2.78474354744
 20
-6.432349681854
 30
0.0
 11
2.799230575562
 21
-6.431082248688
 31
0.0
  0
LINE
  5
32
100
AcDbEntity
  8
CUT
  6
CONTINUOUS
 62
           7
100
AcDbLine
 10
2.799230575562
 20
-6.431082248688
 30
0.0
 11
2.813619613647
 21
-6.428974628448
 31
0.0
  0
LINE
  5
33
100
AcDbEntity
  8
CUT
  6
CONTINUOUS
 62
           7
100
AcDbLine
 10
2.813619613647
 20
-6.428974628448
 30
0.0
 11
2.827861309052
 21
-6.426033973694
 31
0.0
  0
LINE
  5
34
100
AcDbEntity
  8
CUT
  6
CONTINUOUS
 62
           7
100
AcDbLine
 10
2.827861309052
 20
-6.426033973694
 30
0.0
 11
2.841908216476
 21
-6.422269821167
 31
0.0
  0
LINE
  5
35
100
AcDbEntity
  8
CUT
  6
CONTINUOUS
 62
           7
100
AcDbLine
 10
2.841908216476
 20
-6.422269821167
 30
0.0
 11
2.855712413788
 21
-6.417695522308
 31
0.0
  0
LINE
  5
36
100
AcDbEntity
  8
CUT
  6
CONTINUOUS
 62
           7
100
AcDbLine
 10
2.855712413788
 20
-6.417695522308
 30
0.0
 11
2.869227409363
 21
-6.412326335907
 31
0.0
  0
LINE
  5
37
100
AcDbEntity
  8
CUT
  6
CONTINUOUS
 62
           7
100
AcDbLine
 10
2.869227409363
 20
-6.412326335907
 30
0.0
 11
2.882407188416
 21
-6.406180858612
 31
0.0
  0
LINE
  5
38
100
AcDbEntity
  8
CUT
  6
CONTINUOUS
 62
           7
100
AcDbLine
 10
2.882407188416
 20
-6.406180858612
 30
0.0
 11
2.89520740509
 21
-6.399279117584
 31
0.0
  0
LINE
  5
39
100
AcDbEntity
  8
CUT
  6
CONTINUOUS
 62
           7
100
AcDbLine
 10
2.89520740509
 20
-6.399279117584
 30
0.0
 11
2.907584667206
 21
-6.391644477844
 31
0.0
  0
LINE
  5
3A
100
AcDbEntity
  8
CUT
  6
CONTINUOUS
 62
           7
100
AcDbLine
 10
2.907584667206
 20
-6.391644477844
 30
0.0
 11
2.919497013092
 21
-6.383303165436
 31
0.0
  0
LINE
  5
3B
100
AcDbEntity
  8
CUT
  6
CONTINUOUS
 62
           7
100
AcDbLine
 10
2.919497013092
 20
-6.383303165436
 30
0.0
 11
2.930904388428
 21
-6.374283790588
 31
0.0
  0
LINE
  5
3C
100
AcDbEntity
  8
CUT
  6
CONTINUOUS
 62
           7
100
AcDbLine
 10
2.930904388428
 20
-6.374283790588
 30
0.0
 11
2.941767930984
 21
-6.364615917206
 31
0.0
  0
LINE
  5
3D
100
AcDbEntity
  8
CUT
  6
CONTINUOUS
 62
           7
100
AcDbLine
 10
2.941767930984
 20
-6.364615917206
 30
0.0
 11
2.952050924301
 21
-6.354332923889
 31
0.0
  0
LINE
  5
3E
100
AcDbEntity
  8
CUT
  6
CONTINUOUS
 62
           7
100
AcDbLine
 10
2.952050924301
 20
-6.354332923889
 30
0.0
 11
2.961718559265
 21
-6.343469619751
 31
0.0
  0
LINE
  5
3F
100
AcDbEntity
  8
CUT
  6
CONTINUOUS
 62
           7
100
AcDbLine
 10
2.961718559265
 20
-6.343469619751
 30
0.0
 11
2.970738172531
 21
-6.332062244415
 31
0.0
  0
LINE
  5
40
100
AcDbEntity
  8
CUT
  6
CONTINUOUS
 62
           7
100
AcDbLine
 10
2.970738172531
 20
-6.332062244415
 30
0.0
 11
2.97907948494
 21
-6.320149898529
 31
0.0
  0
LINE
  5
41
100
AcDbEntity
  8
CUT
  6
CONTINUOUS
 62
           7
100
AcDbLine
 10
2.97907948494
 20
-6.320149898529
 30
0.0
 11
2.98212313652
 21
-6.315406322479
 31
0.0
  0
LINE
  5
42
100
AcDbEntity
  8
CUT
  6
CONTINUOUS
 62
           7
100
AcDbLine
 10
2.98212313652
 20
-6.315406322479
 30
0.0
 11
2.98212313652
 21
-6.315406322479
 31
0.0
  0
LINE
  5
43
100
AcDbEntity
  8
CUT
  6
CONTINUOUS
 62
           7
100
AcDbLine
 10
2.98212313652
 20
-6.315406322479
 30
0.0
 11
3.234891891479
 21
-5.911544799805
 31
0.0
  0
LINE
  5
44
100
AcDbEntity
  8
CUT
  6
CONTINUOUS
 62
           7
100
AcDbLine
 10
3.234891891479
 20
-5.911544799805
 30
0.0
 11
3.388231277466
 21
-5.681694030762
 31
0.0
  0
LINE
  5
45
100
AcDbEntity
  8
CUT
  6
CONTINUOUS
 62
           7
100
AcDbLine
 10
3.388231277466
 20
-5.681694030762
 30
0.0
 11
3.554676055908
 21
-5.461148262024
 31
0.0
  0
LINE
  5
46
100
AcDbEntity
  8
CUT
  6
CONTINUOUS
 62
           7
100
AcDbLine
 10
3.554676055908
 20
-5.461148262024
 30
0.0
 11
3.733662605286
 21
-5.250653266907
 31
0.0
  0
LINE
  5
47
100
AcDbEntity
  8
CUT
  6
CONTINUOUS
 62
           7
100
AcDbLine
 10
3.733662605286
 20
-5.250653266907
 30
0.0
 11
3.924585580826
 21
-5.050921440125
 31
0.0
  0
LINE
  5
48
100
AcDbEntity
  8
CUT
  6
CONTINUOUS
 62
           7
100
AcDbLine
 10
3.924585580826
 20
-5.050921440125
 30
0.0
 11
4.126799106598
 21
-4.862628936768
 31
0.0
  0
LINE
  5
49
100
AcDbEntity
  8
CUT
  6
CONTINUOUS
 62
           7
100
AcDbLine
 10
4.126799106598
 20
-4.862628936768
 30
0.0
 11
4.339618682861
 21
-4.686412334442
 31
0.0
  0
LINE
  5
4A
100
AcDbEntity
  8
CUT
  6
CONTINUOUS
 62
           7
100
AcDbLine
 10
4.339618682861
 20
-4.686412334442
 30
0.0
 11
4.562324047089
 21
-4.52286863327
 31
0.0
  0
LINE
  5
4B
100
AcDbEntity
  8
CUT
  6
CONTINUOUS
 62
           7
100
AcDbLine
 10
4.562324047089
 20
-4.52286863327
 30
0.0
 11
4.794162273407
 21
-4.372550487518
 31
0.0
  0
LINE
  5
4C
100
AcDbEntity
  8
CUT
  6
CONTINUOUS
 62
           7
100
AcDbLine
 10
4.794162273407
 20
-4.372550487518
 30
0.0
 11
5.034348011017
 21
-4.235967159271
 31
0.0
  0
LINE
  5
4D
100
AcDbEntity
  8
CUT
  6
CONTINUOUS
 62
           7
100
AcDbLine
 10
5.034348011017
 20
-4.235967159271
 30
0.0
 11
5.282069206238
 21
-4.113580226898
 31
0.0
  0
LINE
  5
4E
100
AcDbEntity
  8
CUT
  6
CONTINUOUS
 62
           7
100
AcDbLine
 10
5.282069206238
 20
-4.113580226898
 30
0.0
 11
5.421658992767
 21
-4.052288532257
 31
0.0
  0
LINE
  5
4F
100
AcDbEntity
  8
CUT
  6
CONTINUOUS
 62
           7
100
AcDbLine
 10
5.421658992767
 20
-4.052288532257
 30
0.0
 11
5.421658992767
 21
-4.052288532257
 31
0.0
  0
LINE
  5
50
100
AcDbEntity
  8
CUT
  6
CONTINUOUS
 62
           7
100
AcDbLine
 10
5.421658992767
 20
-4.052288532257
 30
0.0
 11
6.459531784058
 21
-3.616304397583
 31
0.0
  0
LINE
  5
51
100
AcDbEntity
  8
CUT
  6
CONTINUOUS
 62
           7
100
AcDbLine
 10
6.459531784058
 20
-3.616304397583
 30
0.0
 11
6.500228404999
 21
-3.600584983826
 31
0.0
  0
LINE
  5
52
100
AcDbEntity
  8
CUT
  6
CONTINUOUS
 62
           7
100
AcDbLine
 10
6.500228404999
 20
-3.600584983826
 30
0.0
 11
6.541770458221
 21
-3.587258577347
 31
0.0
  0
LINE
  5
53
100
AcDbEntity
  8
CUT
  6
CONTINUOUS
 62
           7
100
AcDbLine
 10
6.541770458221
 20
-3.587258577347
 30
0.0
 11
6.584016799927
 21
-3.576370000839
 31
0.0
  0
LINE
  5
54
100
AcDbEntity
  8
CUT
  6
CONTINUOUS
 62
           7
100
AcDbLine
 10
6.584016799927
 20
-3.576370000839
 30
0.0
 11
6.626824855804
 21
-3.567956447601
 31
0.0
  0
LINE
  5
55
100
AcDbEntity
  8
CUT
  6
CONTINUOUS
 62
           7
100
AcDbLine
 10
6.626824855804
 20
-3.567956447601
 30
0.0
 11
6.670049667358
 21
-3.562046051025
 31
0.0
  0
LINE
  5
56
100
AcDbEntity
  8
CUT
  6
CONTINUOUS
 62
           7
100
AcDbLine
 10
6.670049667358
 20
-3.562046051025
 30
0.0
 11
6.713545322418
 21
-3.558659076691
 31
0.0
  0
LINE
  5
57
100
AcDbEntity
  8
CUT
  6
CONTINUOUS
 62
           7
100
AcDbLine
 10
6.713545322418
 20
-3.558659076691
 30
0.0
 11
6.757164001465
 21
-3.55780673027
 31
0.0
  0
LINE
  5
58
100
AcDbEntity
  8
CUT
  6
CONTINUOUS
 62
           7
100
AcDbLine
 10
6.757164001465
 20
-3.55780673027
 30
0.0
 11
6.800758361816
 21
-3.559492111206
 31
0.0
  0
LINE
  5
59
100
AcDbEntity
  8
CUT
  6
CONTINUOUS
 62
           7
100
AcDbLine
 10
6.800758361816
 20
-3.559492111206
 30
0.0
 11
6.844181060791
 21
-3.563709497452
 31
0.0
  0
LINE
  5
5A
100
AcDbEntity
  8
CUT
  6
CONTINUOUS
 62
           7
100
AcDbLine
 10
6.844181060791
 20
-3.563709497452
 30
0.0
 11
6.887285232544
 21
-3.570444345474
 31
0.0
  0
LINE
  5
5B
100
AcDbEntity
  8
CUT
  6
CONTINUOUS
 62
           7
100
AcDbLine
 10
6.887285232544
 20
-3.570444345474
 30
0.0
 11
6.929924964905
 21
-3.579674243927
 31
0.0
  0
LINE
  5
5C
100
AcDbEntity
  8
CUT
  6
CONTINUOUS
 62
           7
100
AcDbLine
 10
6.929924964905
 20
-3.579674243927
 30
0.0
 11
6.971955776215
 21
-3.591367721558
 31
0.0
  0
LINE
  5
5D
100
AcDbEntity
  8
CUT
  6
CONTINUOUS
 62
           7
100
AcDbLine
 10
6.971955776215
 20
-3.591367721558
 30
0.0
 11
7.013235569
 21
-3.605485439301
 31
0.0
  0
LINE
  5
5E
100
AcDbEntity
  8
CUT
  6
CONTINUOUS
 62
           7
100
AcDbLine
 10
7.013235569
 20
-3.605485439301
 30
0.0
 11
7.053624153137
 21
-3.621979475021
 31
0.0
  0
LINE
  5
5F
100
AcDbEntity
  8
CUT
  6
CONTINUOUS
 62
           7
100
AcDbLine
 10
7.053624153137
 20
-3.621979475021
 30
0.0
 11
7.092986106873
 21
-3.640793800354
 31
0.0
  0
LINE
  5
60
100
AcDbEntity
  8
CUT
  6
CONTINUOUS
 62
           7
100
AcDbLine
 10
7.092986106873
 20
-3.640793800354
 30
0.0
 11
7.131186962128
 21
-3.661864995956
 31
0.0
  0
LINE
  5
61
100
AcDbEntity
  8
CUT
  6
CONTINUOUS
 62
           7
100
AcDbLine
 10
7.131186962128
 20
-3.661864995956
 30
0.0
 11
7.168098449707
 21
-3.685122013092
 31
0.0
  0
LINE
  5
62
100
AcDbEntity
  8
CUT
  6
CONTINUOUS
 62
           7
100
AcDbLine
 10
7.168098449707
 20
-3.685122013092
 30
0.0
 11
7.203594684601
 21
-3.710485696793
 31
0.0
  0
LINE
  5
63
100
AcDbEntity
  8
CUT
  6
CONTINUOUS
 62
           7
100
AcDbLine
 10
7.203594684601
 20
-3.710485696793
 30
0.0
 11
7.23755645752
 21
-3.73787021637
 31
0.0
  0
LINE
  5
64
100
AcDbEntity
  8
CUT
  6
CONTINUOUS
 62
           7
100
AcDbLine
 10
7.23755645752
 20
-3.73787021637
 30
0.0
 11
7.269868850708
 21
-3.767183303833
 31
0.0
  0
LINE
  5
65
100
AcDbEntity
  8
CUT
  6
CONTINUOUS
 62
           7
100
AcDbLine
 10
7.269868850708
 20
-3.767183303833
 30
0.0
 11
7.300421714783
 21
-3.798325777054
 31
0.0
  0
LINE
  5
66
100
AcDbEntity
  8
CUT
  6
CONTINUOUS
 62
           7
100
AcDbLine
 10
7.300421714783
 20
-3.798325777054
 30
0.0
 11
7.329112052917
 21
-3.831191778183
 31
0.0
  0
LINE
  5
67
100
AcDbEntity
  8
CUT
  6
CONTINUOUS
 62
           7
100
AcDbLine
 10
7.329112052917
 20
-3.831191778183
 30
0.0
 11
7.355843067169
 21
-3.865670442581
 31
0.0
  0
LINE
  5
68
100
AcDbEntity
  8
CUT
  6
CONTINUOUS
 62
           7
100
AcDbLine
 10
7.355843067169
 20
-3.865670442581
 30
0.0
 11
7.380524158478
 21
-3.901644945145
 31
0.0
  0
LINE
  5
69
100
AcDbEntity
  8
CUT
  6
CONTINUOUS
 62
           7
100
AcDbLine
 10
7.380524158478
 20
-3.901644945145
 30
0.0
 11
7.403071403503
 21
-3.938993930817
 31
0.0
  0
LINE
  5
6A
100
AcDbEntity
  8
CUT
  6
CONTINUOUS
 62
           7
100
AcDbLine
 10
7.403071403503
 20
-3.938993930817
 30
0.0
 11
7.423408985138
 21
-3.977590560913
 31
0.0
  0
LINE
  5
6B
100
AcDbEntity
  8
CUT
  6
CONTINUOUS
 62
           7
100
AcDbLine
 10
7.423408985138
 20
-3.977590560913
 30
0.0
 11
7.441468238831
 21
-4.017304420471
 31
0.0
  0
LINE
  5
6C
100
AcDbEntity
  8
CUT
  6
CONTINUOUS
 62
           7
100
AcDbLine
 10
7.441468238831
 20
-4.017304420471
 30
0.0
 11
7.457187652588
 21
-4.058001041412
 31
0.0
  0
LINE
  5
6D
100
AcDbEntity
  8
CUT
  6
CONTINUOUS
 62
           7
100
AcDbLine
 10
7.457187652588
 20
-4.058001041412
 30
0.0
 11
7.470513820648
 21
-4.099543094635
 31
0.0
  0
LINE
  5
6E
100
AcDbEntity
  8
CUT
  6
CONTINUOUS
 62
           7
100
AcDbLine
 10
7.470513820648
 20
-4.099543094635
 30
0.0
 11
7.481402397156
 21
-4.14178943634
 31
0.0
  0
LINE
  5
6F
100
AcDbEntity
  8
CUT
  6
CONTINUOUS
 62
           7
100
AcDbLine
 10
7.481402397156
 20
-4.14178943634
 30
0.0
 11
7.489816188812
 21
-4.184597492218
 31
0.0
  0
LINE
  5
70
100
AcDbEntity
  8
CUT
  6
CONTINUOUS
 62
           7
100
AcDbLine
 10
7.489816188812
 20
-4.184597492218
 30
0.0
 11
7.495726585388
 21
-4.227822303772
 31
0.0
  0
LINE
  5
71
100
AcDbEntity
  8
CUT
  6
CONTINUOUS
 62
           7
100
AcDbLine
 10
7.495726585388
 20
-4.227822303772
 30
0.0
 11
7.499113559723
 21
-4.271317958832
 31
0.0
  0
LINE
  5
72
100
AcDbEntity
  8
CUT
  6
CONTINUOUS
 62
           7
100
AcDbLine
 10
7.499113559723
 20
-4.271317958832
 30
0.0
 11
7.499965667725
 21
-4.314936637878
 31
0.0
  0
LINE
  5
73
100
AcDbEntity
  8
CUT
  6
CONTINUOUS
 62
           7
100
AcDbLine
 10
7.499965667725
 20
-4.314936637878
 30
0.0
 11
7.498280525208
 21
-4.35853099823
 31
0.0
  0
LINE
  5
74
100
AcDbEntity
  8
CUT
  6
CONTINUOUS
 62
           7
100
AcDbLine
 10
7.498280525208
 20
-4.35853099823
 30
0.0
 11
7.494062900543
 21
-4.401953697205
 31
0.0
  0
LINE
  5
75
100
AcDbEntity
  8
CUT
  6
CONTINUOUS
 62
           7
100
AcDbLine
 10
7.494062900543
 20
-4.401953697205
 30
0.0
 11
7.487328052521
 21
-4.445057868958
 31
0.0
  0
LINE
  5
76
100
AcDbEntity
  8
CUT
  6
CONTINUOUS
 62
           7
100
AcDbLine
 10
7.487328052521
 20
-4.445057868958
 30
0.0
 11
7.478098392487
 21
-4.487697601318
 31
0.0
  0
LINE
  5
77
100
AcDbEntity
  8
CUT
  6
CONTINUOUS
 62
           7
100
AcDbLine
 10
7.478098392487
 20
-4.487697601318
 30
0.0
 11
7.466404914856
 21
-4.529727935791
 31
0.0
  0
LINE
  5
78
100
AcDbEntity
  8
CUT
  6
CONTINUOUS
 62
           7
100
AcDbLine
 10
7.466404914856
 20
-4.529727935791
 30
0.0
 11
7.452287197113
 21
-4.571007728577
 31
0.0
  0
LINE
  5
79
100
AcDbEntity
  8
CUT
  6
CONTINUOUS
 62
           7
100
AcDbLine
 10
7.452287197113
 20
-4.571007728577
 30
0.0
 11
7.435792922974
 21
-4.611396789551
 31
0.0
  0
LINE
  5
7A
100
AcDbEntity
  8
CUT
  6
CONTINUOUS
 62
           7
100
AcDbLine
 10
7.435792922974
 20
-4.611396789551
 30
0.0
 11
7.41697883606
 21
-4.650758743286
 31
0.0
  0
LINE
  5
7B
100
AcDbEntity
  8
CUT
  6
CONTINUOUS
 62
           7
100
AcDbLine
 10
7.41697883606
 20
-4.650758743286
 30
0.0
 11
7.395907402039
 21
-4.688959598541
 31
0.0
  0
LINE
  5
7C
100
AcDbEntity
  8
CUT
  6
CONTINUOUS
 62
           7
100
AcDbLine
 10
7.395907402039
 20
-4.688959598541
 30
0.0
 11
7.372650623322
 21
-4.725871086121
 31
0.0
  0
LINE
  5
7D
100
AcDbEntity
  8
CUT
  6
CONTINUOUS
 62
           7
100
AcDbLine
 10
7.372650623322
 20
-4.725871086121
 30
0.0
 11
7.347286701202
 21
-4.761367321014
 31
0.0
  0
LINE
  5
7E
100
AcDbEntity
  8
CUT
  6
CONTINUOUS
 62
           7
100
AcDbLine
 10
7.347286701202
 20
-4.761367321014
 30
0.0
 11
7.319902420044
 21
-4.795329093933
 31
0.0
  0
LINE
  5
7F
100
AcDbEntity
  8
CUT
  6
CONTINUOUS
 62
           7
100
AcDbLine
 10
7.319902420044
 20
-4.795329093933
 30
0.0
 11
7.290589332581
 21
-4.827641010284
 31
0.0
  0
LINE
  5
80
100
AcDbEntity
  8
CUT
  6
CONTINUOUS
 62
           7
100
AcDbLine
 10
7.290589332581
 20
-4.827641010284
 30
0.0
 11
7.259446620941
 21
-4.858193874359
 31
0.0
  0
LINE
  5
81
100
AcDbEntity
  8
CUT
  6
CONTINUOUS
 62
           7
100
AcDbLine
 10
7.259446620941
 20
-4.858193874359
 30
0.0
 11
7.226580619812
 21
-4.886884689331
 31
0.0
  0
LINE
  5
82
100
AcDbEntity
  8
CUT
  6
CONTINUOUS
 62
           7
100
AcDbLine
 10
7.226580619812
 20
-4.886884689331
 30
0.0
 11
7.192101955414
 21
-4.913615703583
 31
0.0
  0
LINE
  5
83
100
AcDbEntity
  8
CUT
  6
CONTINUOUS
 62
           7
100
AcDbLine
 10
7.192101955414
 20
-4.913615703583
 30
0.0
 11
7.15612745285
 21
-4.938296318054
 31
0.0
  0
LINE
  5
84
100
AcDbEntity
  8
CUT
  6
CONTINUOUS
 62
           7
100
AcDbLine
 10
7.15612745285
 20
-4.938296318054
 30
0.0
 11
7.118778705597
 21
-4.960844039917
 31
0.0
  0
LINE
  5
85
100
AcDbEntity
  8
CUT
  6
CONTINUOUS
 62
           7
100
AcDbLine
 10
7.118778705597
 20
-4.960844039917
 30
0.0
 11
7.0801820755
 21
-4.981181621552
 31
0.0
  0
LINE
  5
86
100
AcDbEntity
  8
CUT
  6
CONTINUOUS
 62
           7
100
AcDbLine
 10
7.0801820755
 20
-4.981181621552
 30
0.0
 11
7.040468215942
 21
-4.999240875244
 31
0.0
  0
LINE
  5
87
100
AcDbEntity
  8
CUT
  6
CONTINUOUS
 62
           7
100
AcDbLine
 10
7.040468215942
 20
-4.999240875244
 30
0.0
 11
7.040468215942
 21
-4.999240875244
 31
0.0
  0
LINE
  5
88
100
AcDbEntity
  8
CUT
  6
CONTINUOUS
 62
           7
100
AcDbLine
 10
7.040468215942
 20
-4.999240875244
 30
0.0
 11
6.002595424652
 21
-5.435224533081
 31
0.0
  0
LINE
  5
89
100
AcDbEntity
  8
CUT
  6
CONTINUOUS
 62
           7
100
AcDbLine
 10
6.002595424652
 20
-5.435224533081
 30
0.0
 11
5.830502033234
 21
-5.5134806633
 31
0.0
  0
LINE
  5
8A
100
AcDbEntity
  8
CUT
  6
CONTINUOUS
 62
           7
100
AcDbLine
 10
5.830502033234
 20
-5.5134806633
 30
0.0
 11
5.663249969482
 21
-5.601610660553
 31
0.0
  0
LINE
  5
8B
100
AcDbEntity
  8
CUT
  6
CONTINUOUS
 62
           7
100
AcDbLine
 10
5.663249969482
 20
-5.601610660553
 30
0.0
 11
5.501405239105
 21
-5.699316501617
 31
0.0
  0
LINE
  5
8C
100
AcDbEntity
  8
CUT
  6
CONTINUOUS
 62
           7
100
AcDbLine
 10
5.501405239105
 20
-5.699316501617
 30
0.0
 11
5.34551525116
 21
-5.806267261505
 31
0.0
  0
LINE
  5
8D
100
AcDbEntity
  8
CUT
  6
CONTINUOUS
 62
           7
100
AcDbLine
 10
5.34551525116
 20
-5.806267261505
 30
0.0
 11
5.196107387543
 21
-5.922101020813
 31
0.0
  0
LINE
  5
8E
100
AcDbEntity
  8
CUT
  6
CONTINUOUS
 62
           7
100
AcDbLine
 10
5.196107387543
 20
-5.922101020813
 30
0.0
 11
5.053688049316
 21
-6.046426773071
 31
0.0
  0
LINE
  5
8F
100
AcDbEntity
  8
CUT
  6
CONTINUOUS
 62
           7
100
AcDbLine
 10
5.053688049316
 20
-6.046426773071
 30
0.0
 11
4.918737888336
 21
-6.178822517395
 31
0.0
  0
LINE
  5
90
100
AcDbEntity
  8
CUT
  6
CONTINUOUS
 62
           7
100
AcDbLine
 10
4.918737888336
 20
-6.178822517395
 30
0.0
 11
4.791714668274
 21
-6.318841457367
 31
0.0
  0
LINE
  5
91
100
AcDbEntity
  8
CUT
  6
CONTINUOUS
 62
           7
100
AcDbLine
 10
4.791714668274
 20
-6.318841457367
 30
0.0
 11
4.673047542572
 21
-6.466008663177
 31
0.0
  0
LINE
  5
92
100
AcDbEntity
  8
CUT
  6
CONTINUOUS
 62
           7
100
AcDbLine
 10
4.673047542572
 20
-6.466008663177
 30
0.0
 11
4.563138484955
 21
-6.619827270508
 31
0.0
  0
LINE
  5
93
100
AcDbEntity
  8
CUT
  6
CONTINUOUS
 62
           7
100
AcDbLine
 10
4.563138484955
 20
-6.619827270508
 30
0.0
 11
4.50638628006
 21
-6.707347393036
 31
0.0
  0
LINE
  5
94
100
AcDbEntity
  8
CUT
  6
CONTINUOUS
 62
           7
100
AcDbLine
 10
4.50638628006
 20
-6.707347393036
 30
0.0
 11
4.50638628006
 21
-6.707347393036
 31
0.0
  0
LINE
  5
95
100
AcDbEntity
  8
CUT
  6
CONTINUOUS
 62
           7
100
AcDbLine
 10
4.50638628006
 20
-6.707347393036
 30
0.0
 11
4.253617763519
 21
-7.11120891571
 31
0.0
  0
LINE
  5
96
100
AcDbEntity
  8
CUT
  6
CONTINUOUS
 62
           7
100
AcDbLine
 10
4.253617763519
 20
-7.11120891571
 30
0.0
 11
4.197124004364
 21
-7.195890903473
 31
0.0
  0
LINE
  5
97
100
AcDbEntity
  8
CUT
  6
CONTINUOUS
 62
           7
100
AcDbLine
 10
4.197124004364
 20
-7.195890903473
 30
0.0
 11
4.135802268982
 21
-7.277144432068
 31
0.0
  0
LINE
  5
98
100
AcDbEntity
  8
CUT
  6
CONTINUOUS
 62
           7
100
AcDbLine
 10
4.135802268982
 20
-7.277144432068
 30
0.0
 11
4.069859981537
 21
-7.354695320129
 31
0.0
  0
LINE
  5
99
100
AcDbEntity
  8
CUT
  6
CONTINUOUS
 62
           7
100
AcDbLine
 10
4.069859981537
 20
-7.354695320129
 30
0.0
 11
3.999519824982
 21
-7.428280830383
 31
0.0
  0
LINE
  5
9A
100
AcDbEntity
  8
CUT
  6
CONTINUOUS
 62
           7
100
AcDbLine
 10
3.999519824982
 20
-7.428280830383
 30
0.0
 11
3.925020217896
 21
-7.497651576996
 31
0.0
  0
LINE
  5
9B
100
AcDbEntity
  8
CUT
  6
CONTINUOUS
 62
           7
100
AcDbLine
 10
3.925020217896
 20
-7.497651576996
 30
0.0
 11
3.846613168716
 21
-7.562573432922
 31
0.0
  0
LINE
  5
9C
100
AcDbEntity
  8
CUT
  6
CONTINUOUS
 62
           7
100
AcDbLine
 10
3.846613168716
 20
-7.562573432922
 30
0.0
 11
3.764563560486
 21
-7.622826576233
 31
0.0
  0
LINE
  5
9D
100
AcDbEntity
  8
CUT
  6
CONTINUOUS
 62
           7
100
AcDbLine
 10
3.764563560486
 20
-7.622826576233
 30
0.0
 11
3.679149627686
 21
-7.678206920624
 31
0.0
  0
LINE
  5
9E
100
AcDbEntity
  8
CUT
  6
CONTINUOUS
 62
           7
100
AcDbLine
 10
3.679149627686
 20
-7.678206920624
 30
0.0
 11
3.590660095215
 21
-7.728527069092
 31
0.0
  0
LINE
  5
9F
100
AcDbEntity
  8
CUT
  6
CONTINUOUS
 62
           7
100
AcDbLine
 10
3.590660095215
 20
-7.728527069092
 30
0.0
 11
3.499394416809
 21
-7.773617267609
 31
0.0
  0
LINE
  5
A0
100
AcDbEntity
  8
CUT
  6
CONTINUOUS
 62
           7
100
AcDbLine
 10
3.499394416809
 20
-7.773617267609
 30
0.0
 11
3.405661344528
 21
-7.813323974609
 31
0.0
  0
LINE
  5
A1
100
AcDbEntity
  8
CUT
  6
CONTINUOUS
 62
           7
100
AcDbLine
 10
3.405661344528
 20
-7.813323974609
 30
0.0
 11
3.309778213501
 21
-7.84751367569
 31
0.0
  0
LINE
  5
A2
100
AcDbEntity
  8
CUT
  6
CONTINUOUS
 62
           7
100
AcDbLine
 10
3.309778213501
 20
-7.84751367569
 30
0.0
 11
3.212069272995
 21
-7.87607049942
 31
0.0
  0
LINE
  5
A3
100
AcDbEntity
  8
CUT
  6
CONTINUOUS
 62
           7
100
AcDbLine
 10
3.212069272995
 20
-7.87607049942
 30
0.0
 11
3.112864971161
 21
-7.898897647858
 31
0.0
  0
LINE
  5
A4
100
AcDbEntity
  8
CUT
  6
CONTINUOUS
 62
           7
100
AcDbLine
 10
3.112864971161
 20
-7.898897647858
 30
0.0
 11
3.012501478195
 21
-7.915917873383
 31
0.0
  0
LINE
  5
A5
100
AcDbEntity
  8
CUT
  6
CONTINUOUS
 62
           7
100
AcDbLine
 10
3.012501478195
 20
-7.915917873383
 30
0.0
 11
2.911318063736
 21
-7.927073955536
 31
0.0
  0
LINE
  5
A6
100
AcDbEntity
  8
CUT
  6
CONTINUOUS
 62
           7
100
AcDbLine
 10
2.911318063736
 20
-7.927073955536
 30
0.0
 11
2.809657335281
 21
-7.932327747345
 31
0.0
  0
LINE
  5
A7
100
AcDbEntity
  8
CUT
  6
CONTINUOUS
 62
           7
100
AcDbLine
 10
2.809657335281
 20
-7.932327747345
 30
0.0
 11
2.77020740509
 21
-7.932772636414
 31
0.0
  0
LINE
  5
A8
100
AcDbEntity
  8
CUT
  6
CONTINUOUS
 62
           7
100
AcDbLine
 10
2.77020740509
 20
-7.932772636414
 30
0.0
 11
2.77020740509
 21
-7.932772636414
 31
0.0
  0
LINE
  5
A9
100
AcDbEntity
  8
CUT
  6
CONTINUOUS
 62
           7
100
AcDbLine
 10
-2.77020740509
 20
-7.932772636414
 30
0.0
 11
-2.871960878372
 21
-7.929811954498
 31
0.0
  0
LINE
  5
AA
100
AcDbEntity
  8
CUT
  6
CONTINUOUS
 62
           7
100
AcDbLine
 10
-2.871960878372
 20
-7.929811954498
 30
0.0
 11
-2.973370075226
 21
-7.920939445496
 31
0.0
  0
LINE
  5
AB
100
AcDbEntity
  8
CUT
  6
CONTINUOUS
 62
           7
100
AcDbLine
 10
-2.973370075226
 20
-7.920939445496
 30
0.0
 11
-3.074091672897
 21
-7.906186103821
 31
0.0
  0
LINE
  5
AC
100
AcDbEntity
  8
CUT
  6
CONTINUOUS
 62
           7
100
AcDbLine
 10
-3.074091672897
 20
-7.906186103821
 30
0.0
 11
-3.173785209656
 21
-7.885601043701
 31
0.0
  0
LINE
  5
AD
100
AcDbEntity
  8
CUT
  6
CONTINUOUS
 62
           7
100
AcDbLine
 10
-3.173785209656
 20
-7.885601043701
 30
0.0
 11
-3.272113084793
 21
-7.859254360199
 31
0.0
  0
LINE
  5
AE
100
AcDbEntity
  8
CUT
  6
CONTINUOUS
 62
           7
100
AcDbLine
 10
-3.272113084793
 20
-7.859254360199
 30
0.0
 11
-3.368742704391
 21
-7.827234745026
 31
0.0
  0
LINE
  5
AF
100
AcDbEntity
  8
CUT
  6
CONTINUOUS
 62
           7
100
AcDbLine
 10
-3.368742704391
 20
-7.827234745026
 30
0.0
 11
-3.46334695816
 21
-7.789650917053
 31
0.0
  0
LINE
  5
B0
100
AcDbEntity
  8
CUT
  6
CONTINUOUS
 62
           7
100
AcDbLine
 10
-3.46334695816
 20
-7.789650917053
 30
0.0
 11
-3.555606126785
 21
-7.746629714966
 31
0.0
  0
LINE
  5
B1
100
AcDbEntity
  8
CUT
  6
CONTINUOUS
 62
           7
100
AcDbLine
 10
-3.555606126785
 20
-7.746629714966
 30
0.0
 11
-3.64520740509
 21
-7.698317050934
 31
0.0
  0
LINE
  5
B2
100
AcDbEntity
  8
CUT
  6
CONTINUOUS
 62
           7
100
AcDbLine
 10
-3.64520740509
 20
-7.698317050934
 30
0.0
 11
-3.731848239899
 21
-7.644876003265
 31
0.0
  0
LINE
  5
B3
100
AcDbEntity
  8
CUT
  6
CONTINUOUS
 62
           7
100
AcDbLine
 10
-3.731848239899
 20
-7.644876003265
 30
0.0
 11
-3.815234899521
 21
-7.586488246918
 31
0.0
  0
LINE
  5
B4
100
AcDbEntity
  8
CUT
  6
CONTINUOUS
 62
           7
100
AcDbLine
 10
-3.815234899521
 20
-7.586488246918
 30
0.0
 11
-3.895085811615
 21
-7.5233502388
 31
0.0
  0
LINE
  5
B5
100
AcDbEntity
  8
CUT
  6
CONTINUOUS
 62
           7
100
AcDbLine
 10
-3.895085811615
 20
-7.5233502388
 30
0.0
 11
-3.971130371094
 21
-7.455676555634
 31
0.0
  0
LINE
  5
B6
100
AcDbEntity
  8
CUT
  6
CONTINUOUS
 62
           7
100
AcDbLine
 10
-3.971130371094
 20
-7.455676555634
 30
0.0
 11
-4.04311132431
 21
-7.383695602417
 31
0.0
  0
LINE
  5
B7
100
AcDbEntity
  8
CUT
  6
CONTINUOUS
 62
           7
100
AcDbLine
 10
-4.04311132431
 20
-7.383695602417
 30
0.0
 11
-4.110785007477
 21
-7.307651042938
 31
0.0
  0
LINE
  5
B8
100
AcDbEntity
  8
CUT
  6
CONTINUOUS
 62
           7
100
AcDbLine
 10
-4.110785007477
 20
-7.307651042938
 30
0.0
 11
-4.173923015594
 21
-7.227799892426
 31
0.0
  0
LINE
  5
B9
100
AcDbEntity
  8
CUT
  6
CONTINUOUS
 62
           7
100
AcDbLine
 10
-4.173923015594
 20
-7.227799892426
 30
0.0
 11
-4.232311248779
 21
-7.144413471222
 31
0.0
  0
LINE
  5
BA
100
AcDbEntity
  8
CUT
  6
CONTINUOUS
 62
           7
100
AcDbLine
 10
-4.232311248779
 20
-7.144413471222
 30
0.0
 11
-4.253617763519
 21
-7.11120891571
 31
0.0
  0
LINE
  5
BB
100
AcDbEntity
  8
CUT
  6
CONTINUOUS
 62
           7
100
AcDbLine
 10
-4.253617763519
 20
-7.11120891571
 30
0.0
 11
-4.253617763519
 21
-7.11120891571
 31
0.0
  0
LINE
  5
BC
100
AcDbEntity
  8
CUT
  6
CONTINUOUS
 62
           7
100
AcDbLine
 10
-4.253617763519
 20
-7.11120891571
 30
0.0
 11
-4.50638628006
 21
-6.707347393036
 31
0.0
  0
LINE
  5
BD
100
AcDbEntity
  8
CUT
  6
CONTINUOUS
 62
           7
100
AcDbLine
 10
-4.50638628006
 20
-6.707347393036
 30
0.0
 11
-4.611302852631
 21
-6.550081253052
 31
0.0
  0
LINE
  5
BE
100
AcDbEntity
  8
CUT
  6
CONTINUOUS
 62
           7
100
AcDbLine
 10
-4.611302852631
 20
-6.550081253052
 30
0.0
 11
-4.725185871124
 21
-6.399181365967
 31
0.0
  0
LINE
  5
BF
100
AcDbEntity
  8
CUT
  6
CONTINUOUS
 62
           7
100
AcDbLine
 10
-4.725185871124
 20
-6.399181365967
 30
0.0
 11
-4.847650527954
 21
-6.255158424377
 31
0.0
  0
LINE
  5
C0
100
AcDbEntity
  8
CUT
  6
CONTINUOUS
 62
           7
100
AcDbLine
 10
-4.847650527954
 20
-6.255158424377
 30
0.0
 11
-4.978281974792
 21
-6.118499755859
 31
0.0
  0
LINE
  5
C1
100
AcDbEntity
  8
CUT
  6
CONTINUOUS
 62
           7
100
AcDbLine
 10
-4.978281974792
 20
-6.118499755859
 30
0.0
 11
-5.116638660431
 21
-5.989668369293
 31
0.0
  0
LINE
  5
C2
100
AcDbEntity
  8
CUT
  6
CONTINUOUS
 62
           7
100
AcDbLine
 10
-5.116638660431
 20
-5.989668369293
 30
0.0
 11
-5.262251853943
 21
-5.869099140167
 31
0.0
  0
LINE
  5
C3
100
AcDbEntity
  8
CUT
  6
CONTINUOUS
 62
           7
100
AcDbLine
 10
-5.262251853943
 20
-5.869099140167
 30
0.0
 11
-5.414629459381
 21
-5.757200717926
 31
0.0
  0
LINE
  5
C4
100
AcDbEntity
  8
CUT
  6
CONTINUOUS
 62
           7
100
AcDbLine
 10
-5.414629459381
 20
-5.757200717926
 30
0.0
 11
-5.57325553894
 21
-5.654351234436
 31
0.0
  0
LINE
  5
C5
100
AcDbEntity
  8
CUT
  6
CONTINUOUS
 62
           7
100
AcDbLine
 10
-5.57325553894
 20
-5.654351234436
 30
0.0
 11
-5.737593173981
 21
-5.560899734497
 31
0.0
  0
LINE
  5
C6
100
AcDbEntity
  8
CUT
  6
CONTINUOUS
 62
           7
100
AcDbLine
 10
-5.737593173981
 20
-5.560899734497
 30
0.0
 11
-5.907086849213
 21
-5.477160930634
 31
0.0
  0
LINE
  5
C7
100
AcDbEntity
  8
CUT
  6
CONTINUOUS
 62
           7
100
AcDbLine
 10
-5.907086849213
 20
-5.477160930634
 30
0.0
 11
-6.002595424652
 21
-5.435224533081
 31
0.0
  0
LINE
  5
C8
100
AcDbEntity
  8
CUT
  6
CONTINUOUS
 62
           7
100
AcDbLine
 10
-6.002595424652
 20
-5.435224533081
 30
0.0
 11
-6.002595424652
 21
-5.435224533081
 31
0.0
  0
LINE
  5
C9
100
AcDbEntity
  8
CUT
  6
CONTINUOUS
 62
           7
100
AcDbLine
 10
-5.421658992767
 20
-4.052288532257
 30
0.0
 11
-5.170137882233
 21
-4.166662693024
 31
0.0
  0
LINE
  5
CA
100
AcDbEntity
  8
CUT
  6
CONTINUOUS
 62
           7
100
AcDbLine
 10
-5.170137882233
 20
-4.166662693024
 30
0.0
 11
-4.925692558289
 21
-4.295467853546
 31
0.0
  0
LINE
  5
CB
100
AcDbEntity
  8
CUT
  6
CONTINUOUS
 62
           7
100
AcDbLine
 10
-4.925692558289
 20
-4.295467853546
 30
0.0
 11
-4.689149856567
 21
-4.438268184662
 31
0.0
  0
LINE
  5
CC
100
AcDbEntity
  8
CUT
  6
CONTINUOUS
 62
           7
100
AcDbLine
 10
-4.689149856567
 20
-4.438268184662
 30
0.0
 11
-4.461310863495
 21
-4.594581127167
 31
0.0
  0
LINE
  5
CD
100
AcDbEntity
  8
CUT
  6
CONTINUOUS
 62
           7
100
AcDbLine
 10
-4.461310863495
 20
-4.594581127167
 30
0.0
 11
-4.242946147919
 21
-4.763876914978
 31
0.0
  0
LINE
  5
CE
100
AcDbEntity
  8
CUT
  6
CONTINUOUS
 62
           7
100
AcDbLine
 10
-4.242946147919
 20
-4.763876914978
 30
0.0
 11
-4.034794330597
 21
-4.945583343506
 31
0.0
  0
LINE
  5
CF
100
AcDbEntity
  8
CUT
  6
CONTINUOUS
 62
           7
100
AcDbLine
 10
-4.034794330597
 20
-4.945583343506
 30
0.0
 11
-3.837559938431
 21
-5.139085292816
 31
0.0
  0
LINE
  5
D0
100
AcDbEntity
  8
CUT
  6
CONTINUOUS
 62
           7
100
AcDbLine
 10
-3.837559938431
 20
-5.139085292816
 30
0.0
 11
-3.651910305023
 21
-5.343728065491
 31
0.0
  0
LINE
  5
D1
100
AcDbEntity
  8
CUT
  6
CONTINUOUS
 62
           7
100
AcDbLine
 10
-3.651910305023
 20
-5.343728065491
 30
0.0
 11
-3.478473901749
 21
-5.558818817139
 31
0.0
  0
LINE
  5
D2
100
AcDbEntity
  8
CUT
  6
CONTINUOUS
 62
           7
100
AcDbLine
 10
-3.478473901749
 20
-5.558818817139
 30
0.0
 11
-3.317837238312
 21
-5.783630371094
 31
0.0
  0
LINE
  5
D3
100
AcDbEntity
  8
CUT
  6
CONTINUOUS
 62
           7
100
AcDbLine
 10
-3.317837238312
 20
-5.783630371094
 30
0.0
 11
-3.234891891479
 21
-5.911544799805
 31
0.0
  0
LINE
  5
D4
100
AcDbEntity
  8
CUT
  6
CONTINUOUS
 62
           7
100
AcDbLine
 10
-3.234891891479
 20
-5.911544799805
 30
0.0
 11
-3.234891891479
 21
-5.911544799805
 31
0.0
  0
LINE
  5
D5
100
AcDbEntity
  8
CUT
  6
CONTINUOUS
 62
           7
100
AcDbLine
 10
-3.234891891479
 20
-5.911544799805
 30
0.0
 11
-2.98212313652
 21
-6.315406322479
 31
0.0
  0
LINE
  5
D6
100
AcDbEntity
  8
CUT
  6
CONTINUOUS
 62
           7
100
AcDbLine
 10
-2.98212313652
 20
-6.315406322479
 30
0.0
 11
-2.974052667618
 21
-6.327503681183
 31
0.0
  0
LINE
  5
D7
100
AcDbEntity
  8
CUT
  6
CONTINUOUS
 62
           7
100
AcDbLine
 10
-2.974052667618
 20
-6.327503681183
 30
0.0
 11
-2.965292453766
 21
-6.339111328125
 31
0.0
  0
LINE
  5
D8
100
AcDbEntity
  8
CUT
  6
CONTINUOUS
 62
           7
100
AcDbLine
 10
-2.965292453766
 20
-6.339111328125
 30
0.0
 11
-2.955872058868
 21
-6.350190162659
 31
0.0
  0
LINE
  5
D9
100
AcDbEntity
  8
CUT
  6
CONTINUOUS
 62
           7
100
AcDbLine
 10
-2.955872058868
 20
-6.350190162659
 30
0.0
 11
-2.945823431015
 21
-6.360702514648
 31
0.0
  0
LINE
  5
DA
100
AcDbEntity
  8
CUT
  6
CONTINUOUS
 62
           7
100
AcDbLine
 10
-2.945823431015
 20
-6.360702514648
 30
0.0
 11
-2.935180664063
 21
-6.370612621307
 31
0.0
  0
LINE
  5
DB
100
AcDbEntity
  8
CUT
  6
CONTINUOUS
 62
           7
100
AcDbLine
 10
-2.935180664063
 20
-6.370612621307
 30
0.0
 11
-2.923979759216
 21
-6.379887104034
 31
0.0
  0
LINE
  5
DC
100
AcDbEntity
  8
CUT
  6
CONTINUOUS
 62
           7
100
AcDbLine
 10
-2.923979759216
 20
-6.379887104034
 30
0.0
 11
-2.912258386612
 21
-6.388494491577
 31
0.0
  0
LINE
  5
DD
100
AcDbEntity
  8
CUT
  6
CONTINUOUS
 62
           7
100
AcDbLine
 10
-2.912258386612
 20
-6.388494491577
 30
0.0
 11
-2.900056362152
 21
-6.396406173706
 31
0.0
  0
LINE
  5
DE
100
AcDbEntity
  8
CUT
  6
CONTINUOUS
 62
           7
100
AcDbLine
 10
-2.900056362152
 20
-6.396406173706
 30
0.0
 11
-2.887414932251
 21
-6.403594493866
 31
0.0
  0
LINE
  5
DF
100
AcDbEntity
  8
CUT
  6
CONTINUOUS
 62
           7
100
AcDbLine
 10
-2.887414932251
 20
-6.403594493866
 30
0.0
 11
-2.874377012253
 21
-6.410036087036
 31
0.0
  0
LINE
  5
E0
100
AcDbEntity
  8
CUT
  6
CONTINUOUS
 62
           7
100
AcDbLine
 10
-2.874377012253
 20
-6.410036087036
 30
0.0
 11
-2.860986471176
 21
-6.41570854187
 31
0.0
  0
LINE
  5
E1
100
AcDbEntity
  8
CUT
  6
CONTINUOUS
 62
           7
100
AcDbLine
 10
-2.860986471176
 20
-6.41570854187
 30
0.0
 11
-2.847289085388
 21
-6.420592784882
 31
0.0
  0
LINE
  5
E2
100
AcDbEntity
  8
CUT
  6
CONTINUOUS
 62
           7
100
AcDbLine
 10
-2.847289085388
 20
-6.420592784882
 30
0.0
 11
-2.833330631256
 21
-6.42467212677
 31
0.0
  0
LINE
  5
E3
100
AcDbEntity
  8
CUT
  6
CONTINUOUS
 62
           7
100
AcDbLine
 10
-2.833330631256
 20
-6.42467212677
 30
0.0
 11
-2.819158554077
 21
-6.427933216095
 31
0.0
  0
LINE
  5
E4
100
AcDbEntity
  8
CUT
  6
CONTINUOUS
 62
           7
100
AcDbLine
 10
-2.819158554077
 20
-6.427933216095
 30
0.0
 11
-2.804821014404
 21
-6.430364608765
 31
0.0
  0
LINE
  5
E5
100
AcDbEntity
  8
CUT
  6
CONTINUOUS
 62
           7
100
AcDbLine
 10
-2.804821014404
 20
-6.430364608765
 30
0.0
 11
-2.790366172791
 21
-6.431958675385
 31
0.0
  0
LINE
  5
E6
100
AcDbEntity
  8
CUT
  6
CONTINUOUS
 62
           7
100
AcDbLine
 10
-2.790366172791
 20
-6.431958675385
 30
0.0
 11
-2.775843143463
 21
-6.432709217072
 31
0.0
  0
LINE
  5
E7
100
AcDbEntity
  8
CUT
  6
CONTINUOUS
 62
           7
100
AcDbLine
 10
-2.775843143463
 20
-6.432709217072
 30
0.0
 11
-2.77020740509
 21
-6.432772636414
 31
0.0
  0
LINE
  5
E8
100
AcDbEntity
  8
CUT
  6
CONTINUOUS
 62
           7
100
AcDbLine
 10
-2.77020740509
 20
-6.432772636414
 30
0.0
 11
-2.77020740509
 21
-6.432772636414
 31
0.0
  0
LINE
  5
E9
100
AcDbEntity
  8
CUT
  6
CONTINUOUS
 62
           7
100
AcDbLine
 10
-2.77020740509
 20
-6.432772636414
 30
0.0
 11
-2.75
 21
-6.432772636414
 31
0.0
  0
LINE
  5
EA
100
AcDbEntity
  8
CUT
  6
CONTINUOUS
 62
           7
100
AcDbLine
 10
-2.75
 20
-6.432772636414
 30
0.0
 11
-2.75
 21
-6.557772636414
 31
0.0
  0
LINE
  5
EB
100
AcDbEntity
  8
CUT
  6
CONTINUOUS
 62
           7
100
AcDbLine
 10
6.5
 20
-4.089022636414
 30
0.0
 11
7.0
 21
-4.089022636414
 31
0.0
  0
LINE
  5
EC
100
AcDbEntity
  8
CUT
  6
CONTINUOUS
 62
           7
100
AcDbLine
 10
7.0
 20
-4.526522636414
 30
0.0
 11
6.5
 21
-4.526522636414
 31
0.0
  0
ARC
  5
ED
100
AcDbEntity
  8
CUT
  6
CONTINUOUS
 62
           7
 48
12.0
100
AcDbCircle
 10
6.5
 20
-4.307772636414
 30
0.0
 40
0.21875
100
AcDbArc
 50
90.0
 51
270.0
  0
ARC
  5
EE
100
AcDbEntity
  8
CUT
  6
CONTINUOUS
 62
           7
 48
12.0
100
AcDbCircle
 10
7.0
 20
-4.307772636414
 30
0.0
 40
0.21875
100
AcDbArc
 50
270.0
 51
450.0
  0
ARC
  5
EF
100
AcDbEntity
  8
CUT
  6
CONTINUOUS
 62
           7
 48
12.0
100
AcDbCircle
 10
1.14958218928
 20
-10.359416066629
 30
0.0
 40
0.25
100
AcDbArc
 50
0.0
 51
180.0
  0
ARC
  5
F0
100
AcDbEntity
  8
CUT
  6
CONTINUOUS
 62
           7
 48
12.0
100
AcDbCircle
 10
1.14958218928
 20
-11.983539639932
 30
0.0
 40
0.25
100
AcDbArc
 50
180.0
 51
360.0
  0
LINE
  5
F1
100
AcDbEntity
  8
CUT
  6
CONTINUOUS
 62
           7
 48
12.0
100
AcDbLine
 10
0.89958218928
 20
-11.983539639932
 30
0.0
 11
0.89958218928
 21
-10.359416066629
 31
0.0
  0
LINE
  5
F2
100
AcDbEntity
  8
CUT
  6
CONTINUOUS
 62
           7
 48
12.0
100
AcDbLine
 10
1.39958218928
 20
-10.359416066629
 30
0.0
 11
1.39958218928
 21
-11.983539639932
 31
0.0
  0
ARC
  5
F3
100
AcDbEntity
  8
CUT
  6
CONTINUOUS
 62
           7
 48
12.0
100
AcDbCircle
 10
-1.60041781072
 20
-10.359416066629
 30
0.0
 40
0.25
100
AcDbArc
 50
0.0
 51
180.0
  0
ARC
  5
F4
100
AcDbEntity
  8
CUT
  6
CONTINUOUS
 62
           7
 48
12.0
100
AcDbCircle
 10
-1.60041781072
 20
-11.983539639932
 30
0.0
 40
0.25
100
AcDbArc
 50
180.0
 51
360.0
  0
LINE
  5
F5
100
AcDbEntity
  8
CUT
  6
CONTINUOUS
 62
           7
 48
12.0
100
AcDbLine
 10
-1.85041781072
 20
-11.983539639932
 30
0.0
 11
-1.85041781072
 21
-10.359416066629
 31
0.0
  0
LINE
  5
F6
100
AcDbEntity
  8
CUT
  6
CONTINUOUS
 62
           7
 48
12.0
100
AcDbLine
 10
-1.35041781072
 20
-10.359416066629
 30
0.0
 11
-1.35041781072
 21
-11.983539639932
 31
0.0
  0
ARC
  5
F7
100
AcDbEntity
  8
CUT
  6
CONTINUOUS
 62
           7
 48
12.0
100
AcDbCircle
 10
3.154281750408
 20
-13.108335855077
 30
0.0
 40
0.468750181001
100
AcDbArc
 50
269.999999999998
 51
450.0
  0
LINE
  5
F8
100
AcDbEntity
  8
CUT
  6
CONTINUOUS
 62
           7
 48
12.0
100
AcDbLine
 10
3.154281750408
 20
-12.639585674075
 30
0.0
 11
2.52458218928
 21
-12.639585674075
 31
0.0
  0
LINE
  5
F9
100
AcDbEntity
  8
CUT
  6
CONTINUOUS
 62
           7
 48
12.0
100
AcDbLine
 10
2.39958218928
 20
-9.828370372317
 30
0.0
 11
2.39958218928
 21
-12.514585674075
 31
0.0
  0
ARC
  5
FA
100
AcDbEntity
  8
CUT
  6
CONTINUOUS
 62
           7
 48
12.0
100
AcDbCircle
 10
3.15428175044
 20
-9.234620191316
 30
0.0
 40
0.468750181001
100
AcDbArc
 50
269.999999999998
 51
450.0
  0
LINE
  5
FB
100
AcDbEntity
  8
CUT
  6
CONTINUOUS
 62
           7
 48
12.0
100
AcDbLine
 10
3.15428175044
 20
-9.703370372317
 30
0.0
 11
2.52458218928
 21
-9.703370372317
 31
0.0
  0
ARC
  5
FC
100
AcDbEntity
  8
CUT
  6
CONTINUOUS
 62
           7
 48
12.0
100
AcDbCircle
 10
2.52458218928
 20
-9.828370372317
 30
0.0
 40
0.125
100
AcDbArc
 50
90.0
 51
180.0
  0
ARC
  5
FD
100
AcDbEntity
  8
CUT
  6
CONTINUOUS
 62
           7
 48
12.0
100
AcDbCircle
 10
2.52458218928
 20
-12.514585674075
 30
0.0
 40
0.125
100
AcDbArc
 50
180.0
 51
270.0
  0
LINE
  5
FE
100
AcDbEntity
  8
CUT
  6
CONTINUOUS
 62
           7
 48
12.0
100
AcDbLine
 10
-0.100417645685
 20
-13.702290123424
 30
0.0
 11
3.154281750408
 21
-13.577086036078
 31
0.0
  0
LINE
  5
FF
100
AcDbEntity
  8
CUT
  6
CONTINUOUS
 62
           7
 48
12.0
100
AcDbLine
 10
-0.100417645651
 20
-8.644075054201
 30
0.0
 11
3.15428175044
 21
-8.765870010314
 31
0.0
  0
LINE
  5
100
100
AcDbEntity
  8
CUT
  6
CONTINUOUS
 62
           7
 48
12.0
100
AcDbLine
 10
-0.100417645618
 20
-13.702290123424
 30
0.0
 11
-3.355117041711
 21
-13.577086036078
 31
0.0
  0
LINE
  5
101
100
AcDbEntity
  8
CUT
  6
CONTINUOUS
 62
           7
 48
12.0
100
AcDbLine
 10
-3.344841190999
 20
-12.627964854418
 30
0.0
 11
-2.97541781072
 21
-12.627964854418
 31
0.0
  0
ARC
  5
102
100
AcDbEntity
  8
CUT
  6
CONTINUOUS
 62
           7
 48
12.0
100
AcDbCircle
 10
-3.344841190968
 20
-9.240232951678
 30
0.0
 40
0.468749948557
100
AcDbArc
 50
89.99994283866
 51
270.0
  0
LINE
  5
103
100
AcDbEntity
  8
CUT
  6
CONTINUOUS
 62
           7
 48
12.0
100
AcDbLine
 10
-3.344841190968
 20
-9.708982900235
 30
0.0
 11
-2.97541781072
 21
-9.708982900235
 31
0.0
  0
ARC
  5
104
100
AcDbEntity
  8
CUT
  6
CONTINUOUS
 62
           7
 48
12.0
100
AcDbCircle
 10
-3.344841190999
 20
-13.102723094609
 30
0.0
 40
0.474758240191
100
AcDbArc
 50
90.0
 51
269.999999999998
  0
ARC
  5
105
100
AcDbEntity
  8
CUT
  6
CONTINUOUS
 62
           7
 48
12.0
100
AcDbCircle
 10
-2.97541781072
 20
-9.833982900235
 30
0.0
 40
0.125
100
AcDbArc
 50
0.0
 51
90.0
  0
ARC
  5
106
100
AcDbEntity
  8
CUT
  6
CONTINUOUS
 62
           7
 48
12.0
100
AcDbCircle
 10
-2.97541781072
 20
-12.502964854418
 30
0.0
 40
0.125
100
AcDbArc
 50
270.0
 51
360.0
  0
LINE
  5
107
100
AcDbEntity
  8
CUT
  6
CONTINUOUS
 62
           7
 48
12.0
100
AcDbLine
 10
-2.85041781072
 20
-9.833982900235
 30
0.0
 11
-2.85041781072
 21
-12.502964854418
 31
0.0
  0
ARC
  5
108
100
AcDbEntity
  8
CUT
  6
CONTINUOUS
 62
           7
 48
12.0
100
AcDbCircle
 10
-6.75
 20
-4.3077725353
 30
0.0
 40
0.750000055087
100
AcDbArc
 50
70.547287102733
 51
237.213960025788
  0
LINE
  5
109
100
AcDbEntity
  8
CUT
  6
CONTINUOUS
 62
           7
 48
12.0
100
AcDbLine
 10
-6.500228404999
 20
-3.600584983826
 30
0.0
 11
-5.421658992767
 21
-4.052288532257
 31
0.0
  0
LINE
  5
10A
100
AcDbEntity
  8
CUT
  6
CONTINUOUS
 62
           7
 48
12.0
100
AcDbLine
 10
-7.156127573444
 20
-4.938296505279
 30
0.0
 11
-6.002595424652
 21
-5.435224533081
 31
0.0
  0
LINE
  5
10B
100
AcDbEntity
  8
CUT
  6
CONTINUOUS
 62
           7
 48
12.0
100
AcDbLine
 10
-2.77020740509
 20
-7.932772636414
 30
0.0
 11
2.77020740509
 21
-7.932772636414
 31
0.0
  0
ENDSEC
  0
SECTION
  2
OBJECTS
  0
DICTIONARY
  5
19
100
AcDbDictionary
  3
ACAD_GROUP
350
1A
  3
ACAD_MLINESTYLE
350
1B
  0
DICTIONARY
  5
1A
102
{ACAD_REACTORS
330
19
102
}
100
AcDbDictionary
  0
DICTIONARY
  5
1B
102
{ACAD_REACTORS
330
19
102
}
100
AcDbDictionary
  3
STANDARD
350
1C
  0
MLINESTYLE
  5
1C
102
{ACAD_REACTORS
330
1B
102
}
100
AcDbMlineStyle
  2
STANDARD
 70
           0
  3

 62
           0
 51
90.0
 52
90.0
 71
           2
 49
0.5
 62
         256
  6
BYLAYER
 49
-0.5
 62
         256
  6
BYLAYER
  0
ENDSEC
  0
EOF
